<svg width="96" height="96" viewBox="0 0 96 96" fill="none" xmlns="http://www.w3.org/2000/svg">
<g id="10476458">
<path id="Vector" d="M62.4002 92.8002V14.4002H4.80017V91.2002C4.80017 92.9602 6.24017 94.4002 8.00017 94.4002H59.2002C59.5842 94.4002 59.9682 94.3362 60.3042 94.1922L62.4002 92.8002Z" fill="#00BFFF"/>
<path id="Vector_2" d="M62.4 1.60016H4.80004C3.03273 1.60016 1.60004 3.03285 1.60004 4.80016V14.4002C1.60004 16.1675 3.03273 17.6002 4.80004 17.6002H62.4C64.1673 17.6002 65.6 16.1675 65.6 14.4002V4.80016C65.6 3.03285 64.1673 1.60016 62.4 1.60016Z" fill="#1A6ED3"/>
<path id="Vector_3" d="M73.6001 72.0001V83.2001C73.6001 86.3041 72.3521 89.0881 70.3201 91.1201C68.2881 93.1521 65.5041 94.4001 62.4001 94.4001C56.2081 94.4001 51.2001 89.3921 51.2001 83.2001V72.0001L52.8001 70.4001H72.0001L73.6001 72.0001Z" fill="#E1EBF0"/>
<path id="Vector_4" d="M52.8001 38.4002H14.4001C12.6328 38.4002 11.2001 39.8329 11.2001 41.6002V67.2002C11.2001 68.9675 12.6328 70.4002 14.4001 70.4002H52.8001C54.5675 70.4002 56.0001 68.9675 56.0001 67.2002V41.6002C56.0001 39.8329 54.5675 38.4002 52.8001 38.4002Z" fill="white"/>
<path id="Vector_5" d="M73.6001 60.8002V72.0002H51.2001V60.8002C51.2001 54.6082 56.2081 49.6002 62.4001 49.6002C65.5041 49.6002 68.2881 50.8482 70.3201 52.8802C72.3521 54.9122 73.6001 57.6962 73.6001 60.8002Z" fill="#1A6ED3"/>
<path id="Vector_6" d="M94.4001 80.0001C94.4001 87.9521 87.9521 94.4001 80.0001 94.4001C74.2241 94.4001 69.2321 90.9921 66.9441 86.0641C66.4961 85.1041 66.1441 84.0961 65.9201 83.0241C65.7121 82.0481 65.6001 81.0401 65.6001 80.0001C65.6001 72.0481 72.0481 65.6001 80.0001 65.6001C85.7761 65.6001 90.7681 69.0081 93.0561 73.9361C93.5041 74.8961 93.8561 75.9041 94.0801 76.9761C94.2881 77.9521 94.4001 78.9601 94.4001 80.0001Z" fill="#BCCDD3"/>
<path id="Vector_7" d="M43.2002 51.2001H24.0002C23.1154 51.2001 22.4002 50.4849 22.4002 49.6001C22.4002 48.7153 23.1154 48.0001 24.0002 48.0001H43.2002C44.085 48.0001 44.8002 48.7153 44.8002 49.6001C44.8002 50.4849 44.085 51.2001 43.2002 51.2001Z" fill="#E1E8EB"/>
<path id="Vector_8" d="M40.0001 60.8001H27.2001C26.3153 60.8001 25.6001 60.0849 25.6001 59.2001C25.6001 58.3153 26.3153 57.6001 27.2001 57.6001H40.0001C40.8849 57.6001 41.6001 58.3153 41.6001 59.2001C41.6001 60.0849 40.8849 60.8001 40.0001 60.8001Z" fill="#E1E8EB"/>
<g id="Group">
<path id="Vector_9" d="M8.00012 1.60016H11.2001V17.6002H8.00012V1.60016Z" fill="#165DB3"/>
<path id="Vector_10" d="M17.6001 1.60016H20.8001V17.6002H17.6001V1.60016Z" fill="#165DB3"/>
<path id="Vector_11" d="M27.2 1.60016H30.4V17.6002H27.2V1.60016Z" fill="#165DB3"/>
<path id="Vector_12" d="M36.8 1.60016H40V17.6002H36.8V1.60016Z" fill="#165DB3"/>
<path id="Vector_13" d="M46.4001 1.60016H49.6001V17.6002H46.4001V1.60016Z" fill="#165DB3"/>
<path id="Vector_14" d="M56 1.60016H59.2V17.6002H56V1.60016Z" fill="#165DB3"/>
</g>
<path id="Vector_15" d="M94.08 76.9762L66.944 86.0642C66.496 85.1042 66.144 84.0962 65.92 83.0242L93.056 73.9362C93.504 74.8962 93.856 75.9042 94.08 76.9762Z" fill="#A5B9C8"/>
</g>
</svg>
