<svg width="96" height="96" viewBox="0 0 96 96" fill="none" xmlns="http://www.w3.org/2000/svg">
<g id="12891941" clip-path="url(#clip0_104_485)">
<path id="Vector" d="M64.0032 1.60016H22.4032C18.8686 1.60016 16.0032 4.46554 16.0032 8.00016V88.0001C16.0032 91.5348 18.8686 94.4001 22.4032 94.4001H64.0032C67.5379 94.4001 70.4032 91.5348 70.4032 88.0001V8.00016C70.4032 4.46554 67.5379 1.60016 64.0032 1.60016Z" fill="#00BFFF"/>
<path id="Vector_2" d="M62.4031 3.20016C60.6351 3.20016 59.2031 4.63216 59.2031 6.40016V8.00016C59.2031 9.76816 57.7711 11.2002 56.0031 11.2002H30.4031C28.6351 11.2002 27.2031 9.76816 27.2031 8.00016V6.40016C27.2031 4.63216 25.7711 3.20016 24.0031 3.20016V1.60016H62.4031V3.20016Z" fill="#165DB2"/>
<path id="Vector_3" d="M56.0032 42.4962C60.6592 40.8642 64.0032 36.4162 64.0032 31.2002C64.0032 24.5762 58.6272 19.2002 52.0032 19.2002C45.3792 19.2002 40.0032 24.5762 40.0032 31.2002C40.0032 36.4162 43.3472 40.8642 48.0032 42.4962H56.0032Z" fill="#1A6ED3"/>
<path id="Vector_4" d="M51.2032 89.6001H35.2032C34.3184 89.6001 33.6032 88.8849 33.6032 88.0001C33.6032 87.1153 34.3184 86.4001 35.2032 86.4001H51.2032C52.088 86.4001 52.8032 87.1153 52.8032 88.0001C52.8032 88.8849 52.088 89.6001 51.2032 89.6001Z" fill="#1A6ED3"/>
<path id="Vector_5" d="M64.0032 96.0001H22.4032C17.992 96.0001 14.4032 92.4113 14.4032 88.0001V8.00012C14.4032 3.58892 17.992 0.00012207 22.4032 0.00012207H64.0032C68.4144 0.00012207 72.0032 3.58892 72.0032 8.00012V88.0001C72.0032 92.4113 68.4144 96.0001 64.0032 96.0001ZM22.4032 3.20012C19.7568 3.20012 17.6032 5.35372 17.6032 8.00012V88.0001C17.6032 90.6465 19.7568 92.8001 22.4032 92.8001H64.0032C66.6496 92.8001 68.8032 90.6465 68.8032 88.0001V8.00012C68.8032 5.35372 66.6496 3.20012 64.0032 3.20012H22.4032Z" fill="#165DB2"/>
<path id="Vector_6" d="M43.9856 70.6162C39.9776 67.7698 36.2144 65.7538 33.4384 64.4434C30.9792 63.2834 28.0608 64.4882 27.1088 67.0354C26.2624 69.2978 27.2976 71.8306 29.4784 72.8722C51.152 83.2242 44.3328 94.3986 59.2032 94.3986H67.2672C72.9232 94.3986 80.0032 92.3346 80.0032 81.5986V63.429C80.0032 61.3362 78.4992 59.429 76.4176 59.2194C74.024 58.9778 72.0032 60.8546 72.0032 63.1986V60.229C72.0032 58.1362 70.4992 56.229 68.4176 56.0194C66.024 55.7778 64.0032 57.6546 64.0032 59.9986V58.629C64.0032 56.5362 62.4992 54.629 60.4176 54.4194C58.024 54.1778 56.0032 56.0546 56.0032 58.3986V34.629C56.0032 32.5362 54.4992 30.629 52.4176 30.4194C50.024 30.1778 48.0032 32.0546 48.0032 34.3986V68.5554C48.0032 70.6194 45.6704 71.8098 43.9872 70.6146L43.9856 70.6162Z" fill="#FCB790"/>
</g>
<defs>
<clipPath id="clip0_104_485">
<rect width="96" height="96" fill="white"/>
</clipPath>
</defs>
</svg>
