<svg width="28" height="28" viewBox="0 0 28 28" fill="none" xmlns="http://www.w3.org/2000/svg">
<g id="16465384" clip-path="url(#clip0_104_412)">
<path id="Vector" d="M24.2296 19.8925C22.5035 19.138 19.8768 18.0933 19.1516 17.8064C18.6753 16.447 18.0112 15.8964 17.6824 15.6959C18.4882 14.5163 18.8043 13.0028 18.9749 11.6203C19.0063 11.3664 19.043 11.1111 19.0798 10.8558C19.1468 10.3897 19.2139 9.91919 19.2511 9.4501C19.2666 9.44637 19.2821 9.44326 19.2976 9.43948C19.9495 9.28096 21.6809 8.85949 21.7 7.61129C21.7051 7.46574 21.6791 7.32077 21.6238 7.18603C21.5685 7.0513 21.4852 6.92988 21.3793 6.82985C21.2203 6.69674 21.0364 6.59666 20.8383 6.53548C20.6401 6.4743 20.4318 6.45324 20.2254 6.47353C19.9078 6.49651 19.592 6.53993 19.28 6.60352V2.21325C19.2676 1.61504 19.0186 1.04614 18.5875 0.631248C18.1564 0.216353 17.5783 -0.0106859 16.9801 -0.000103764H11.0199C10.4217 -0.0106859 9.84364 0.216353 9.41252 0.631248C8.9814 1.04614 8.73236 1.61504 8.72 2.21325V6.61535C8.40793 6.54892 8.09209 6.50156 7.77426 6.47353C7.56783 6.453 7.35938 6.47397 7.16117 6.5352C6.96296 6.59643 6.77901 6.69669 6.62012 6.83007C6.51432 6.93011 6.43105 7.05154 6.37585 7.18629C6.32065 7.32103 6.29479 7.46598 6.3 7.6115C6.31289 8.48009 7.12447 9.09597 8.71216 9.44204C8.72444 9.44472 8.73647 9.44691 8.74875 9.44956C8.7859 9.9197 8.85311 10.3912 8.92023 10.8584C8.95686 11.113 8.99339 11.3672 9.02475 11.6203C9.18506 12.9174 9.49882 14.4675 10.3338 15.6862C10.0111 15.8782 9.33269 16.4241 8.84836 17.8064C8.12316 18.0933 5.49648 19.138 3.77032 19.8925C2.65754 20.3789 1.96875 21.8253 1.96875 22.8911L2.01688 27.5669C2.01838 27.6824 2.06543 27.7927 2.1478 27.8738C2.23016 27.9549 2.34119 28.0002 2.45677 27.9999H2.46139C2.57774 27.999 2.68899 27.952 2.77065 27.8691C2.85232 27.7862 2.89772 27.6743 2.89688 27.5579L2.84875 22.8866C2.84875 22.1146 3.39435 21.0127 4.1245 20.6936C5.30296 20.1784 6.90732 19.5259 8.02909 19.0757L6.56737 21.1501C6.50293 21.2415 6.47611 21.3541 6.49244 21.4648C6.50878 21.5754 6.56703 21.6755 6.65514 21.7444L7.71829 22.579L6.4606 24.3175C6.40438 24.395 6.37532 24.489 6.37792 24.5848C6.38053 24.6806 6.41465 24.7728 6.475 24.8472L8.895 27.8367C8.96848 27.9272 9.07474 27.9849 9.19063 27.9974C9.30652 28.0098 9.42263 27.9759 9.51364 27.9031C9.55862 27.8673 9.59606 27.8229 9.62379 27.7725C9.65152 27.7221 9.66901 27.6667 9.67523 27.6096C9.68145 27.5524 9.67629 27.4945 9.66004 27.4394C9.64379 27.3842 9.61678 27.3328 9.58057 27.2881L7.37056 24.558L8.67842 22.7503C8.74458 22.6589 8.77274 22.5455 8.75697 22.4338C8.7412 22.3221 8.68275 22.2208 8.59388 22.1513L7.52654 21.3137L9.54102 18.455C9.57578 18.4056 9.59982 18.3495 9.61161 18.2902C9.61425 18.2832 9.61844 18.277 9.62073 18.2698C9.72329 17.9381 9.85975 17.6178 10.0279 17.3141C9.72941 19.3904 9.42925 23.5515 10.8754 27.7055C10.9137 27.8153 10.994 27.9055 11.0986 27.9563C11.2033 28.0071 11.3238 28.0143 11.4338 27.9765C11.5437 27.9386 11.6342 27.8587 11.6855 27.7543C11.7367 27.6499 11.7445 27.5294 11.7071 27.4193C10.0679 22.7107 10.8026 17.8525 11.0549 16.5225C11.7707 17.1622 12.6643 17.5687 13.6168 17.6881C13.7436 17.708 13.8717 17.7183 14 17.7189C14.1438 17.7179 14.2873 17.7055 14.4292 17.6817C15.3632 17.5585 16.24 17.1616 16.9489 16.5409C17.2052 17.8962 17.9271 22.7253 16.2929 27.4193C16.2556 27.5294 16.2634 27.6498 16.3147 27.7542C16.3659 27.8586 16.4564 27.9384 16.5663 27.9762C16.6762 28.0141 16.7967 28.0068 16.9013 27.9561C17.0059 27.9054 17.0862 27.8153 17.1246 27.7055C18.5709 23.5511 18.2705 19.3895 17.972 17.3134C18.1402 17.6174 18.2767 17.9379 18.3793 18.2698C18.3816 18.277 18.3857 18.2832 18.3884 18.2902C18.4002 18.3495 18.4242 18.4056 18.459 18.455L20.4735 21.3137L19.4061 22.1513C19.3173 22.2208 19.2588 22.3221 19.243 22.4338C19.2273 22.5455 19.2554 22.6589 19.3216 22.7503L20.6294 24.558L18.4194 27.2881C18.3479 27.3791 18.3151 27.4947 18.3284 27.6098C18.3416 27.7248 18.3998 27.83 18.4902 27.9023C18.5806 27.9747 18.696 28.0084 18.8111 27.9961C18.9263 27.9838 19.0319 27.9265 19.105 27.8367L21.525 24.8472C21.5853 24.7728 21.6195 24.6806 21.6221 24.5848C21.6247 24.489 21.5956 24.3951 21.5394 24.3175L20.2817 22.579L21.3449 21.7444C21.433 21.6755 21.4912 21.5754 21.5075 21.4648C21.5239 21.3541 21.4971 21.2415 21.4326 21.1501L19.9709 19.0757C21.0926 19.5258 22.6969 20.1783 23.8755 20.6936C24.6056 21.0127 25.1512 22.1146 25.1512 22.8821L25.1031 27.5579C25.1023 27.6743 25.1477 27.7862 25.2293 27.8691C25.311 27.952 25.4223 27.999 25.5386 27.9999H25.5432C25.6588 28.0002 25.7698 27.9549 25.8522 27.8738C25.9345 27.7927 25.9816 27.6824 25.9831 27.5669L26.0312 22.8866C26.0312 21.8253 25.3425 20.3789 24.2296 19.8925ZM9.60001 6.8196V6.0076C10.9882 6.3333 12.4099 6.494 13.8358 6.48635C15.3725 6.48531 16.904 6.30746 18.4 5.95632V6.81961C17.1416 7.13157 15.8521 7.30075 14.5558 7.32397H13.444C12.1478 7.30074 10.8583 7.13155 9.60001 6.8196ZM11.0199 0.874894H16.9801C17.3457 0.864808 17.7003 0.999981 17.9665 1.25082C18.2326 1.50165 18.3885 1.84772 18.4 2.21324V5.0568C15.5122 5.77301 12.495 5.78856 9.6 5.10215V2.21325C9.61154 1.84772 9.76743 1.50166 10.0335 1.25082C10.2997 0.999986 10.6543 0.86481 11.0199 0.874894ZM7.18 7.59847C7.17681 7.57394 7.17938 7.549 7.18751 7.52564C7.19564 7.50228 7.2091 7.48113 7.22684 7.46389C7.37097 7.36696 7.54528 7.32539 7.71765 7.34682C8.21765 7.40119 8.71298 7.49223 9.19964 7.61919C9.20207 7.61978 9.20448 7.61967 9.20691 7.62022C10.5285 7.96685 11.8859 8.15913 13.2518 8.1932C13.2716 8.19646 13.2915 8.19832 13.3115 8.19875C13.5276 8.20452 13.7384 8.20737 13.9441 8.20729H14.0556C14.2612 8.20729 14.4721 8.20445 14.6882 8.19875C14.7083 8.19832 14.7282 8.19646 14.748 8.1932C16.1261 8.15915 17.4955 7.9636 18.8281 7.61055L18.8311 7.61001C19.3042 7.47172 19.7905 7.3835 20.282 7.34682C20.4544 7.3253 20.6288 7.36688 20.7729 7.46389C20.7907 7.48113 20.8042 7.50227 20.8124 7.52563C20.8205 7.54899 20.8231 7.57393 20.82 7.59847C20.8143 7.97787 20.2316 8.31133 19.0883 8.58968C15.8087 9.38778 12.5713 9.38735 8.90057 8.58712C7.82883 8.35363 7.18569 7.98427 7.18 7.59847ZM14.291 16.8176C14.1116 16.8505 13.9279 16.8523 13.7479 16.8229C11.4978 16.4875 10.3106 14.8501 9.8981 11.5135C9.86619 11.2548 9.82881 10.9949 9.79143 10.7347C9.7376 10.3602 9.68592 9.99133 9.64963 9.62918C11.1323 9.91149 12.6377 10.0569 14.147 10.0635C15.5577 10.0632 16.965 9.92364 18.3484 9.64688C18.3121 10.0025 18.2614 10.3645 18.2086 10.7319C18.1711 10.9929 18.1336 11.254 18.1016 11.5135C17.6863 14.8768 16.5469 16.463 14.291 16.8176Z" fill="#013366"/>
</g>
<defs>
<clipPath id="clip0_104_412">
<rect width="28" height="28" fill="white"/>
</clipPath>
</defs>
</svg>
