<svg width="64" height="64" viewBox="0 0 64 64" fill="none" xmlns="http://www.w3.org/2000/svg">
<g id="16878840 1" clip-path="url(#clip0_600_3112)">
<g id="Clip path group">
<mask id="mask0_600_3112" style="mask-type:luminance" maskUnits="userSpaceOnUse" x="-1" y="0" width="65" height="64">
<g id="clip0_702_56960">
<path id="Vector" d="M-0.00195312 6.10352e-05H63.998V64.0001H-0.00195312V6.10352e-05Z" fill="white"/>
</g>
</mask>
<g mask="url(#mask0_600_3112)">
<g id="Group">
<path id="Vector_2" d="M13.5938 33.0667C13.5938 30.563 15.6234 28.5334 18.1271 28.5334C20.6308 28.5334 22.6604 30.563 22.6604 33.0667C22.6604 35.5702 20.6308 37.6001 18.1271 37.6001C15.6234 37.6001 13.5938 35.5702 13.5938 33.0667Z" fill="url(#paint0_linear_600_3112)"/>
<path id="Vector_3" fill-rule="evenodd" clip-rule="evenodd" d="M27.4951 3.67595C22.1604 2.24655 16.677 5.41238 15.2476 10.747L14.6933 12.8156C14.4074 13.8825 15.0406 14.9792 16.1075 15.2651C17.1745 15.551 18.2711 14.9178 18.557 13.8509L19.1113 11.7823C19.9689 8.58152 23.259 6.682 26.4598 7.53966L52.2178 14.4415C55.4186 15.2992 57.3181 18.5892 56.4605 21.79L50.9389 42.3963C50.7423 43.1299 50.4183 43.795 49.9967 44.3747V29.3334C49.9967 23.8105 45.5197 19.3334 39.9967 19.3334H13.3301C7.80723 19.3334 3.33008 23.8105 3.33008 29.3334V50.6667C3.33008 56.1897 7.80723 60.6667 13.3301 60.6667H39.9967C45.5197 60.6667 49.9967 56.1897 49.9967 50.6667V49.5867C52.2807 48.3182 54.0719 46.1587 54.8026 43.4318L60.3242 22.8253C61.7535 17.4906 58.5877 12.0072 53.253 10.5778L27.4951 3.67595ZM13.3301 23.3334C10.0164 23.3334 7.33008 26.0197 7.33008 29.3334V50.2254C7.68442 49.5326 8.17872 48.8846 8.73973 48.3235L13.1683 43.8953C14.7304 42.3331 17.2631 42.3331 18.8251 43.8953L23.4631 48.5334L34.5013 37.4953C36.0634 35.9331 38.5962 35.9331 40.1583 37.4953L45.9967 43.3337V29.3334C45.9967 26.0197 43.3103 23.3334 39.9967 23.3334H13.3301Z" fill="url(#paint1_linear_600_3112)"/>
</g>
</g>
</g>
</g>
<defs>
<linearGradient id="paint0_linear_600_3112" x1="31.9962" y1="3.33338" x2="31.9962" y2="60.6667" gradientUnits="userSpaceOnUse">
<stop stop-color="#5558FF"/>
<stop offset="1" stop-color="#00C0FF"/>
</linearGradient>
<linearGradient id="paint1_linear_600_3112" x1="31.9994" y1="3.33339" x2="31.9994" y2="60.6667" gradientUnits="userSpaceOnUse">
<stop stop-color="#5558FF"/>
<stop offset="1" stop-color="#00C0FF"/>
</linearGradient>
<clipPath id="clip0_600_3112">
<rect width="64" height="64" fill="white"/>
</clipPath>
</defs>
</svg>
