<svg width="96" height="96" viewBox="0 0 96 96" fill="none" xmlns="http://www.w3.org/2000/svg">
<g id="2552108">
<g id="Group">
<path id="Vector" d="M38.2023 91.74C38.2023 94.089 40.1134 96 42.4623 96H61.3158C63.6649 96 65.5759 94.0888 65.5759 91.74V86.4302H38.2023V91.74Z" fill="#165DB2"/>
<path id="Vector_2" d="M74.5112 70.919C75.642 69.4761 76.2643 67.675 76.2643 65.841V59.1837C76.2643 55.5485 73.8269 52.2989 70.3369 51.2817L54.522 46.6723V28.1906C54.522 24.4475 51.4766 21.4019 47.7333 21.4019C43.9899 21.4019 40.9446 24.4475 40.9446 28.1906V57.8551L36.0742 52.0114C34.0035 49.527 30.3194 49.0524 27.6866 50.9305C25.3229 52.617 24.4433 55.6708 25.5476 58.3562C25.56 58.3866 25.5735 58.4164 25.5881 58.4459L36.6622 80.7997H67.769L74.5112 70.919Z" fill="#165DB2"/>
<path id="Vector_3" d="M47.7332 10.0979C37.8632 10.0979 29.8331 18.1277 29.8331 27.9978C29.8331 29.5526 31.0936 30.8131 32.6484 30.8131C34.2031 30.8131 35.4636 29.5526 35.4636 27.9978C35.4636 21.2324 40.9678 15.7284 47.7332 15.7284C54.4987 15.7284 60.0027 21.2324 60.0027 27.9978C60.0027 29.5526 61.2631 30.8131 62.8179 30.8131C64.3727 30.8131 65.6332 29.5526 65.6332 27.9978C65.6332 18.1277 57.6033 10.0979 47.7332 10.0979Z" fill="#00BFFF"/>
<path id="Vector_4" d="M47.7332 5.6305C60.0667 5.6305 70.1006 15.6644 70.1006 27.9978C70.1006 29.5526 71.3611 30.8131 72.9158 30.8131C74.4706 30.8131 75.7311 29.5526 75.7311 27.9978C75.7311 12.5598 63.1713 0 47.7332 0C32.2954 0 19.7356 12.5598 19.7356 27.9978C19.7356 29.5526 20.9961 30.8131 22.5508 30.8131C24.1056 30.8131 25.3661 29.5526 25.3661 27.9978C25.3661 15.6644 35.4 5.6305 47.7332 5.6305Z" fill="#00BFFF"/>
</g>
</g>
</svg>
