<svg width="96" height="96" viewBox="0 0 96 96" fill="none" xmlns="http://www.w3.org/2000/svg">
<g id="2749687">
<path id="Vector" d="M19.2 83.2L51.2272 94.0912C52.2067 94.4073 53.2481 94.4821 54.2627 94.3091C55.2773 94.1361 56.235 93.7205 57.0544 93.0976L92.9712 65.8144C93.3735 65.5021 93.707 65.11 93.9505 64.6628C94.1941 64.2155 94.3426 63.7227 94.3866 63.2153C94.4306 62.7079 94.3692 62.1969 94.2064 61.7143C94.0435 61.2318 93.7825 60.7881 93.44 60.4112C92.8525 59.7666 92.0551 59.3516 91.19 59.2402C90.3249 59.1289 89.4484 59.3284 88.7168 59.8032L57.392 79.6432C56.9848 79.9005 56.5088 80.0274 56.0276 80.0068C55.5464 79.9862 55.0829 79.8192 54.6992 79.528L44.8 72H68.1824C68.7476 72 69.3073 71.8887 69.8295 71.6724C70.3517 71.4561 70.8261 71.1391 71.2258 70.7394C71.6255 70.3397 71.9425 69.8653 72.1588 69.3431C72.3751 68.8209 72.4864 68.2612 72.4864 67.696C72.4865 66.6678 72.1186 65.6736 71.4491 64.8932C70.7797 64.1129 69.853 63.5979 68.8368 63.4416L32.576 57.6912C30.8873 57.4332 29.1604 57.7225 27.648 58.5168L19.2 62.4H17.6V83.2H19.2Z" fill="#FCB790"/>
<path id="Vector_2" d="M16 59.2H4.80002C3.03271 59.2 1.60002 60.6327 1.60002 62.4V84.8C1.60002 86.5673 3.03271 88 4.80002 88H16C17.7673 88 19.2 86.5673 19.2 84.8V62.4C19.2 60.6327 17.7673 59.2 16 59.2Z" fill="#BCCDD3"/>
<path id="Vector_3" d="M12.8 67.2001H8.00002C7.57568 67.2001 7.16871 67.0316 6.86865 66.7315C6.5686 66.4314 6.40002 66.0245 6.40002 65.6001C6.40002 65.1758 6.5686 64.7688 6.86865 64.4687C7.16871 64.1687 7.57568 64.0001 8.00002 64.0001H12.8C13.2244 64.0001 13.6313 64.1687 13.9314 64.4687C14.2315 64.7688 14.4 65.1758 14.4 65.6001C14.4 66.0245 14.2315 66.4314 13.9314 66.7315C13.6313 67.0316 13.2244 67.2001 12.8 67.2001Z" fill="#A5B9C8"/>
<path id="Vector_4" d="M72.3425 68.7999C72.0932 69.7142 71.5517 70.5218 70.8006 71.0995C70.0495 71.6773 69.1301 71.9935 68.1825 71.9999H36.8001C36.3757 71.9999 35.9687 71.8314 35.6687 71.5313C35.3686 71.2312 35.2001 70.8243 35.2001 70.3999C35.2001 69.9756 35.3686 69.5686 35.6687 69.2686C35.9687 68.9685 36.3757 68.7999 36.8001 68.7999H72.3425Z" fill="#FCB790"/>
<g id="Group 18">
<path id="Vector_5" d="M86.2456 53.5283V10.8138H54.8636V52.6566C54.8636 53.6155 55.6481 54.4 56.607 54.4H84.5022C84.7114 54.4 84.9206 54.3651 85.1037 54.2867L86.2456 53.5283Z" fill="#00BFFF"/>
<path id="Vector_6" d="M86.2456 3.84003H54.8635C53.9006 3.84003 53.1201 4.6206 53.1201 5.58348V10.8138C53.1201 11.7767 53.9006 12.5573 54.8635 12.5573H86.2456C87.2085 12.5573 87.989 11.7767 87.989 10.8138V5.58348C87.989 4.6206 87.2085 3.84003 86.2456 3.84003Z" fill="#1A6ED3"/>
<path id="Vector_7" d="M81.0153 23.8898H60.0939C59.131 23.8898 58.3504 24.6703 58.3504 25.6332V39.5808C58.3504 40.5437 59.131 41.3243 60.0939 41.3243H81.0153C81.9781 41.3243 82.7587 40.5437 82.7587 39.5808V25.6332C82.7587 24.6703 81.9781 23.8898 81.0153 23.8898Z" fill="white"/>
<path id="Vector_8" d="M75.785 30.8635H65.3243C64.8423 30.8635 64.4526 30.4738 64.4526 29.9918C64.4526 29.5097 64.8423 29.1201 65.3243 29.1201H75.785C76.2671 29.1201 76.6568 29.5097 76.6568 29.9918C76.6568 30.4738 76.2671 30.8635 75.785 30.8635Z" fill="#E1E8EB"/>
<path id="Vector_9" d="M74.0415 36.0939H67.0677C66.5857 36.0939 66.196 35.7042 66.196 35.2221C66.196 34.7401 66.5857 34.3504 67.0677 34.3504H74.0415C74.5236 34.3504 74.9132 34.7401 74.9132 35.2221C74.9132 35.7042 74.5236 36.0939 74.0415 36.0939Z" fill="#E1E8EB"/>
<g id="Group">
<path id="Vector_10" d="M56.607 3.83997H58.3505V12.5572H56.607V3.83997Z" fill="#165DB2"/>
<path id="Vector_11" d="M61.8374 3.8399H63.5808V12.5571H61.8374V3.8399Z" fill="#165DB2"/>
<path id="Vector_12" d="M67.0677 3.8399H68.8112V12.5571H67.0677V3.8399Z" fill="#165DB2"/>
<path id="Vector_13" d="M72.2981 3.8399H74.0415V12.5571H72.2981V3.8399Z" fill="#165DB2"/>
<path id="Vector_14" d="M77.5284 3.8399H79.2718V12.5571H77.5284V3.8399Z" fill="#165DB2"/>
<path id="Vector_15" d="M82.7587 3.8399H84.5021V12.5571H82.7587V3.8399Z" fill="#165DB2"/>
</g>
</g>
</g>
</svg>
