<svg width="29" height="28" viewBox="0 0 29 28" fill="none" xmlns="http://www.w3.org/2000/svg">
<g id="2900216">
<path id="Vector" d="M27.1956 7.48346L14.9456 1.35846C14.8848 1.32811 14.8179 1.31232 14.75 1.31232C14.6821 1.31232 14.6152 1.32811 14.5544 1.35846L2.30444 7.48346C2.23172 7.5198 2.17056 7.57569 2.12782 7.64485C2.08509 7.71402 2.06247 7.79372 2.06251 7.87502V20.125C2.06206 20.2067 2.08449 20.2869 2.12724 20.3564C2.17 20.426 2.23138 20.4823 2.30444 20.5188L14.5544 26.6438C14.6152 26.6741 14.6821 26.6899 14.75 26.6899C14.8179 26.6899 14.8848 26.6741 14.9456 26.6438L27.1956 20.5188C27.2686 20.4823 27.33 20.426 27.3728 20.3564C27.4155 20.2869 27.438 20.2067 27.4375 20.125V7.87502C27.4375 7.79372 27.4149 7.71402 27.3722 7.64485C27.3295 7.57569 27.2683 7.5198 27.1956 7.48346ZM14.75 13.5109L11.3301 11.8007L22.2614 5.99377L26.0239 7.87502L14.75 13.5109ZM7.83007 10.0507L18.7614 4.24377L21.2989 5.51252L10.3689 11.3203L7.83007 10.0507ZM7.31251 10.7704L9.93751 12.0829V15.5689L8.93432 14.5657C8.85229 14.4837 8.74103 14.4375 8.62501 14.4375H7.31251V10.7704ZM14.75 2.23915L17.8003 3.76252L6.86888 9.57033L3.47826 7.87502L14.75 2.23915ZM2.93751 8.5829L6.43751 10.3329V14.875C6.43751 14.9911 6.4836 15.1023 6.56565 15.1844C6.64769 15.2664 6.75897 15.3125 6.87501 15.3125H8.44388L10.0657 16.9343C10.1269 16.9955 10.2048 17.0372 10.2897 17.054C10.3745 17.0709 10.4625 17.0622 10.5424 17.0291C10.6223 16.996 10.6907 16.94 10.7387 16.868C10.7868 16.7961 10.8125 16.7115 10.8125 16.625V12.5204L14.3125 14.2704V25.5421L2.93751 19.8546V8.5829ZM15.1875 25.5421V14.2704L26.5625 8.5829V19.8546L15.1875 25.5421Z" fill="#011575"/>
</g>
</svg>
