<svg width="28" height="28" viewBox="0 0 28 28" fill="none" xmlns="http://www.w3.org/2000/svg">
<g id="3642114">
<g id="layer2">
<path id="path828" d="M25.6961 1.74649C25.5438 1.7506 25.399 1.81409 25.2928 1.92336L22.7857 4.43211L22.0303 3.67669C21.6103 3.25671 21.1271 3.02436 20.6507 3.01142C20.3648 3.00364 20.0993 3.0452 19.784 3.08901L15.6943 3.65729C14.1896 3.86636 13.4255 4.51094 12.4552 5.41518L2.3951 14.79C2.39105 14.7938 2.38706 14.7976 2.38312 14.8014C1.94829 15.2308 1.75976 15.8179 1.75322 16.3956C1.74668 16.9733 1.9289 17.5845 2.41393 17.9988L2.38027 17.9675L10.0765 25.6637L10.0451 25.6301C10.4595 26.1151 11.0707 26.2973 11.6484 26.2908C12.2261 26.2843 12.8132 26.0957 13.2426 25.6609C13.2464 25.6569 13.2502 25.6529 13.254 25.6489L13.9449 24.9072L16.6967 25.9325C17.2945 26.1552 17.9067 26.1139 18.4295 25.868C18.9523 25.6221 19.408 25.2071 19.618 24.6333L22.638 15.5791C23.5373 14.6135 24.1784 13.8492 24.3867 12.3497L24.955 8.25999C24.9988 7.94463 25.0403 7.6792 25.0326 7.39331C25.0196 6.91692 24.7873 6.43367 24.3673 6.0137L23.6119 5.25828L26.1206 2.74953C26.5024 2.37792 26.2287 1.73077 25.6961 1.74649ZM20.6187 4.17992C20.8476 4.18614 20.8938 4.19252 21.2041 4.50286L21.9596 5.25828L20.6182 6.6008C20.3892 6.49019 20.1343 6.42621 19.865 6.42621C18.9039 6.42621 18.1117 7.21844 18.1117 8.17954C18.1117 9.14064 18.9039 9.93286 19.865 9.93286C20.8261 9.93286 21.6184 9.14064 21.6184 8.17954C21.6184 7.91035 21.5543 7.65538 21.4438 7.4264L22.7857 6.08445L23.5411 6.83987C23.8515 7.15021 23.8579 7.1964 23.8641 7.42526C23.8678 7.56252 23.8417 7.78375 23.7979 8.09909L23.2296 12.1889C23.0534 13.4568 22.6736 13.8271 21.7741 14.7923L12.4101 24.841C12.2587 24.9939 11.9465 25.1187 11.6353 25.1223C11.3238 25.1258 11.0564 25.0144 10.9341 24.8712C10.9241 24.8596 10.9136 24.8484 10.9027 24.8376L3.20643 17.1413C3.19563 17.1304 3.1844 17.1199 3.17277 17.1099C3.02956 16.9876 2.9182 16.7202 2.92173 16.4087C2.92525 16.0975 3.05009 15.7853 3.20301 15.6339L3.20359 15.6333L13.2517 6.26986C14.2169 5.37042 14.5872 4.99056 15.8552 4.81437L19.9449 4.24609C20.2603 4.20227 20.4815 4.17619 20.6187 4.17992ZM19.865 7.59471C20.1946 7.59471 20.4493 7.84994 20.4493 8.17954C20.4493 8.50913 20.1946 8.76379 19.865 8.76379C19.5354 8.76379 19.2808 8.50913 19.2808 8.17954C19.2808 7.84994 19.5354 7.59471 19.865 7.59471ZM9.9259 14.0169C9.40226 14.0176 9.14378 14.6537 9.51852 15.0194L13.0246 18.526C13.5765 19.0768 14.4027 18.2489 13.8508 17.6982L10.3441 14.1938C10.2343 14.0809 10.0835 14.0171 9.9259 14.0169ZM8.17258 15.768C7.64621 15.7665 7.38644 16.4072 7.7652 16.7727L11.2719 20.2771C11.8223 20.865 12.6858 20.001 12.0974 19.4509L8.59308 15.9471C8.48305 15.8328 8.33126 15.7681 8.17258 15.768ZM20.7197 17.6371L18.5202 24.2316C18.4463 24.4338 18.2139 24.6782 17.932 24.8107C17.6501 24.9433 17.3661 24.9395 17.1897 24.8735L14.807 23.9823L20.7197 17.6371Z" fill="#013366"/>
</g>
</g>
</svg>
