<svg width="120" height="120" viewBox="0 0 120 120" fill="none" xmlns="http://www.w3.org/2000/svg">
<g id="3789177 1" clip-path="url(#clip0_688_2254)">
<path id="Vector" d="M47.5 95C21.31 95 0 73.69 0 47.5C0 21.31 21.31 0 47.5 0C73.69 0 95 21.31 95 47.5C95 73.69 73.69 95 47.5 95Z" fill="#00BFFF"/>
<path id="Vector_2" d="M47.502 85C26.827 85 10.002 68.18 10.002 47.5C10.002 26.82 26.827 10 47.502 10C68.177 10 85.002 26.82 85.002 47.5C85.002 68.18 68.177 85 47.502 85Z" fill="white"/>
<path id="Vector_3" d="M115.002 120C113.722 120 112.442 119.51 111.467 118.535L75.7866 82.855C73.8316 80.9 73.8316 77.74 75.7866 75.785C77.7416 73.83 80.9016 73.83 82.8566 75.785L118.537 111.465C120.492 113.42 120.492 116.58 118.537 118.535C117.562 119.51 116.282 120 115.002 120Z" fill="#00BFFF"/>
<path id="Vector_4" d="M46.9012 20C42.0512 20 37.5012 21.9 34.0512 25.3L19.7012 39.7L45.3512 65.35L59.7012 50.95C63.1012 47.5 65.0012 42.95 65.0012 38.1C65.0012 28.15 56.8512 20 46.9012 20Z" fill="#015CE6"/>
<path id="Vector_5" d="M19.7 39.7L5.3 54.05C1.9 57.5 0 62.05 0 66.9C0 76.85 8.15 85 18.1 85C22.95 85 27.5 83.1 30.95 79.7L45.35 65.35L19.7 39.7Z" fill="#FFE680"/>
<path id="Vector_6" d="M74.005 74.005C67.215 80.795 57.84 85 47.5 85C41.16 85 35.18 83.42 29.94 80.63C26.705 83.385 22.66 84.935 18.375 85C26.425 91.265 36.535 95 47.5 95C58.8 95 69.19 91.035 77.35 84.425L75.785 82.86C73.83 80.905 73.83 77.745 75.785 75.79L74.005 74.005ZM13.93 13.93C5.325 22.53 0 34.405 0 47.5C0 51.66 0.54 55.7 1.55 59.545C2.445 57.525 3.71 55.665 5.305 54.045L10.05 49.32C10.015 48.72 10 48.11 10 47.5C10 37.16 14.205 27.785 20.995 20.995L13.93 13.93Z" fill="#00BFFF"/>
<path id="Vector_7" d="M75.7866 75.785C73.8316 77.74 73.8316 80.905 75.7866 82.855L77.3516 84.42L111.467 118.53C112.442 119.51 113.722 120 115.002 120C116.282 120 117.562 119.51 118.537 118.535L75.7866 75.785Z" fill="#00BFFF"/>
<path id="Vector_8" d="M46.9012 20C42.0512 20 37.5012 21.9 34.0512 25.3L19.7012 39.7L32.5012 52.5L59.6862 25.315C56.4012 22.035 51.8762 20 46.9012 20Z" fill="#015CE6"/>
<path id="Vector_9" d="M19.7 39.7L5.3 54.05C1.9 57.5 0 62.05 0 66.9C0 71.875 2.035 76.4 5.32 79.68L32.5 52.5L19.7 39.7Z" fill="#FFE680"/>
</g>
<defs>
<clipPath id="clip0_688_2254">
<rect width="120" height="120" fill="white"/>
</clipPath>
</defs>
</svg>
