<svg width="29" height="28" viewBox="0 0 29 28" fill="none" xmlns="http://www.w3.org/2000/svg">
<g id="511587" clip-path="url(#clip0_304_1295)">
<g id="Group">
<g id="Group_2">
<g id="Group_3">
<path id="Vector" d="M14.6568 14.0757C16.4175 13.0679 17.6206 11.1915 17.6206 9.02156C17.6206 5.79827 14.9982 3.1759 11.7748 3.1759C8.55146 3.1759 5.92903 5.79827 5.92903 9.02156C5.92903 11.1915 7.13209 13.0679 8.89283 14.0757C4.48867 15.232 1.25244 18.9557 1.25244 23.3691V24.8048C1.25244 25.1275 1.51435 25.3894 1.83704 25.3894C2.15972 25.3894 2.42163 25.1275 2.42163 24.8048V23.3691C2.42157 18.6821 6.6177 14.8672 11.7748 14.8672C16.9319 14.8672 21.128 18.6821 21.128 23.3691V24.8048C21.128 25.1275 21.3899 25.3894 21.7126 25.3894C22.0353 25.3894 22.2972 25.1275 22.2972 24.8048V23.3691C22.2972 18.9557 19.0609 15.2308 14.6568 14.0757ZM7.09822 9.02156C7.09822 6.44248 9.19568 4.34507 11.7748 4.34507C14.3539 4.34507 16.4514 6.44248 16.4514 9.02156C16.4514 11.6006 14.3539 13.698 11.7748 13.698C9.19568 13.698 7.09822 11.6007 7.09822 9.02156Z" fill="#011575"/>
<path id="Vector_2" d="M22.5284 14.0909C23.7957 13.2527 24.6352 11.8193 24.6352 10.1907C24.6352 7.61164 22.5377 5.51422 19.9586 5.51422C19.6359 5.51422 19.374 5.77612 19.374 6.0988C19.374 6.42148 19.6359 6.68339 19.9586 6.68339C21.8924 6.68339 23.4661 8.25705 23.4661 10.1908C23.4661 12.1245 21.8924 13.6981 19.9586 13.6981C19.6359 13.6981 19.374 13.9601 19.374 14.2827C19.374 14.6054 19.6359 14.8672 19.9586 14.8672C23.8273 14.8672 26.9735 17.7748 26.9735 21.35V22.4665C26.9735 22.7892 27.2354 23.0511 27.5581 23.0511C27.8808 23.0511 28.1427 22.7892 28.1427 22.4665V21.35C28.1427 17.9712 25.7857 15.101 22.5284 14.0909Z" fill="#011575"/>
</g>
</g>
</g>
</g>
<defs>
<clipPath id="clip0_304_1295">
<rect width="28" height="28" fill="white" transform="translate(0.25)"/>
</clipPath>
</defs>
</svg>
