<svg width="96" height="96" viewBox="0 0 96 96" fill="none" xmlns="http://www.w3.org/2000/svg">
<g id="7099197">
<path id="Vector" d="M67.683 58.011L50.793 74.886C48.807 76.872 46.191 78.096 43.395 78.351L18.024 80.199L6.519 92.448C6.333 92.646 6 92.514 6 92.241V64.506L12.135 58.38C14.946 55.575 18.759 54 24.417 54H42.747C44.898 54 46.977 55.236 47.697 57.264C48.738 60.198 46.782 63.009 44.004 63.318L31.275 65.463C28.326 65.961 29.067 70.398 32.022 69.897L44.499 67.788C48.327 67.365 51.54 64.5 52.305 60.639L61.314 51.645C63.072 49.887 65.922 49.887 67.677 51.645C69.441 53.403 69.441 56.253 67.683 58.011Z" fill="#165DB2"/>
<path id="Vector_2" d="M90 3.75897V31.494L83.865 37.62C81.054 40.425 77.241 42 71.583 42H53.253C51.102 42 49.02 40.764 48.3 38.736C47.259 35.802 49.215 32.991 51.993 32.682L64.722 30.537C67.671 30.039 66.93 25.602 63.975 26.103L55.5 27.534V24C55.5 23.172 54.828 22.5 54 22.5H43.818L45.207 21.114C47.193 19.128 49.809 17.904 52.605 17.649L77.976 15.801L89.481 3.55197C89.667 3.35397 90 3.48597 90 3.75897Z" fill="#165DB2"/>
<path id="Vector_3" d="M44.061 40.242C43.116 37.581 43.416 34.71 44.883 32.367C46.257 30.174 48.468 28.701 51 28.281V27.9C51 27.402 50.598 27 50.1 27H12.9C12.402 27 12 27.402 12 27.9V48.6C12 49.098 12.402 49.5 12.9 49.5H50.1C50.598 49.5 51 49.098 51 48.6V46.221C47.802 45.498 45.141 43.29 44.061 40.242ZM31.5 43.5C28.602 43.5 26.25 41.148 26.25 38.25C26.25 35.352 28.602 33 31.5 33C34.398 33 36.75 35.352 36.75 38.25C36.75 41.148 34.398 43.5 31.5 43.5Z" fill="#00BFFF"/>
</g>
</svg>
