<svg width="120" height="120" viewBox="0 0 120 120" fill="none" xmlns="http://www.w3.org/2000/svg">
<g id="7518748 1">
<g id="_x32_0_Success">
<g id="Group">
<path id="Vector" d="M113.622 69.9385L113.587 69.9558C109.474 73.1103 107.731 78.4782 109.195 83.4455L109.213 83.4804C111.548 91.3756 105.762 99.3401 97.5353 99.5494H97.5006C92.3068 99.6889 87.7405 103 86.015 107.898V107.915C83.2611 115.688 73.885 118.738 67.1052 114.05C62.8954 111.175 57.3301 111.025 52.9009 114.05H52.8836C46.104 118.72 36.7274 115.688 33.9911 107.897C32.2501 102.988 27.6906 99.6884 22.5057 99.5492H22.4708C14.2447 99.3399 8.45824 91.3754 10.7938 83.4802L10.8111 83.4453C12.2748 78.4779 10.532 73.1101 6.41918 69.9556L6.38426 69.9383C-0.151524 64.9187 -0.151524 55.0892 6.38426 50.0698L6.41918 50.0525C10.532 46.898 12.2748 41.5299 10.7938 36.5628V36.5279C8.44066 28.6329 14.2445 20.6679 22.4708 20.4589H22.5057C27.6819 20.3194 32.2656 17.0079 33.9911 12.1107V12.0933C36.7271 4.32029 46.104 1.27036 52.8836 5.9588H52.9009C57.1707 8.90419 62.8175 8.90419 67.1052 5.9588C73.9532 1.22982 83.2773 4.36693 86.015 12.0933V12.1107C87.7405 16.9906 92.3066 20.3197 97.5006 20.4589H97.5353C105.762 20.6679 111.548 28.6329 109.213 36.5279L109.195 36.5628C107.731 41.5299 109.474 46.898 113.587 50.0525L113.622 50.0698C120.158 55.0892 120.158 64.9189 113.622 69.9385Z" fill="#3EB655"/>
<path id="Vector_2" d="M60.0059 92.465C77.9358 92.465 92.4709 77.93 92.4709 60.0001C92.4709 42.0702 77.9358 27.5352 60.0059 27.5352C42.0761 27.5352 27.541 42.0702 27.541 60.0001C27.541 77.93 42.0761 92.465 60.0059 92.465Z" fill="#8BD399"/>
<path id="Vector_3" opacity="0.1" d="M84.9304 39.2187C79.315 34.5991 72.1307 31.8225 64.2988 31.8225C46.3691 31.8225 31.8262 46.3655 31.8262 64.2952C31.8262 72.127 34.6028 79.3113 39.2221 84.9267C32.0875 78.9752 27.543 70.0228 27.543 59.9995C27.543 42.0696 42.0735 27.5393 60.0032 27.5393C70.0265 27.5393 78.9789 32.0838 84.9304 39.2187Z" fill="black"/>
<path id="Vector_4" d="M52.284 72.7093L45.1049 65.0714C43.2247 63.0708 43.3217 59.9253 45.3217 58.0451C47.3216 56.1626 50.4685 56.2636 52.3471 58.2628L55.7741 61.9074L70.3412 45.2578C72.1468 43.1916 75.2874 42.9821 77.3553 44.7903C79.4216 46.5985 79.6302 49.7382 77.8229 51.8044L59.646 72.5782C57.7096 74.7891 54.2921 74.847 52.284 72.7093Z" fill="white"/>
</g>
</g>
</g>
</svg>
