<svg width="28" height="28" viewBox="0 0 28 28" fill="none" xmlns="http://www.w3.org/2000/svg">
<g id="7874280">
<g id="Group 16">
<path id="Vector" d="M19.376 17.1734C19.461 17.2447 19.5673 17.2851 19.6778 17.2885L19.6778 17.2887C19.7849 17.2932 19.8907 17.2637 19.9801 17.2045C20.0695 17.1453 20.1379 17.0593 20.1755 16.9589C20.2131 16.8585 20.218 16.7488 20.1895 16.6455C20.161 16.5422 20.1007 16.4505 20.017 16.3835C20.017 16.3835 20.0169 16.3834 20.0169 16.3834L16.7779 13.7592V6.32097C16.7779 6.18608 16.7243 6.05672 16.6289 5.96134C16.5336 5.86596 16.4042 5.81238 16.2693 5.81238C16.1344 5.81238 16.0051 5.86596 15.9097 5.96134C15.8143 6.05672 15.7607 6.18608 15.7607 6.32097V14C15.7607 14.0757 15.7774 14.1505 15.8096 14.219C15.8418 14.2875 15.8887 14.348 15.947 14.3963L15.9474 14.3966L19.3757 17.1732C19.3758 17.1732 19.3759 17.1733 19.376 17.1734Z" fill="#013366" stroke="#013366" stroke-width="0.0768953"/>
<path id="Vector_2" d="M6.30526 19.1725H11.549C11.6838 19.1725 11.8132 19.1189 11.9086 19.0235C12.004 18.9281 12.0575 18.7988 12.0575 18.6639C12.0575 18.529 12.004 18.3996 11.9086 18.3043C11.8132 18.2089 11.6838 18.1553 11.549 18.1553H6.30526C6.17037 18.1553 6.04101 18.2089 5.94563 18.3043C5.85025 18.3996 5.79667 18.529 5.79667 18.6639C5.79667 18.7988 5.85025 18.9281 5.94563 19.0235C6.04101 19.1189 6.17037 19.1725 6.30526 19.1725Z" fill="#013366" stroke="#013366" stroke-width="0.0768953"/>
<path id="Vector_3" d="M0.597862 14.1262H9.42093C9.55581 14.1262 9.68518 14.0727 9.78056 13.9773C9.87594 13.8819 9.92952 13.7525 9.92952 13.6176C9.92952 13.4828 9.87594 13.3534 9.78056 13.258C9.68518 13.1626 9.55581 13.1091 9.42093 13.1091H0.597862C0.462974 13.1091 0.333612 13.1626 0.238232 13.258C0.142852 13.3534 0.0892684 13.4828 0.0892684 13.6176C0.0892684 13.7525 0.142852 13.8819 0.238232 13.9773C0.333612 14.0727 0.462974 14.1262 0.597862 14.1262Z" fill="#013366" stroke="#013366" stroke-width="0.0768953"/>
<path id="Vector_4" d="M2.92977 9.02359H6.06408C6.19896 9.02359 6.32833 8.97001 6.42371 8.87463C6.51909 8.77925 6.57267 8.64988 6.57267 8.515C6.57267 8.38011 6.51909 8.25075 6.42371 8.15537C6.32833 8.05999 6.19896 8.0064 6.06408 8.0064H2.92977C2.79488 8.0064 2.66552 8.05999 2.57014 8.15537C2.47476 8.25075 2.42118 8.38011 2.42118 8.515C2.42118 8.64988 2.47476 8.77925 2.57014 8.87463C2.66552 8.97001 2.79488 9.02359 2.92977 9.02359Z" fill="#013366" stroke="#013366" stroke-width="0.0768953"/>
<path id="Vector_5" d="M15.9097 22.8223C16.0051 22.9176 16.1344 22.9712 16.2693 22.9712C16.4042 22.9712 16.5336 22.9176 16.6289 22.8223C16.7243 22.7269 16.7779 22.5975 16.7779 22.4626V22.3686C16.7779 22.2337 16.7243 22.1044 16.6289 22.009C16.5336 21.9136 16.4042 21.86 16.2693 21.86C16.1344 21.86 16.0051 21.9136 15.9097 22.009C15.8143 22.1044 15.7607 22.2337 15.7607 22.3686V22.4626C15.7607 22.5975 15.8143 22.7269 15.9097 22.8223Z" fill="#013366" stroke="#013366" stroke-width="0.0768953"/>
<path id="Vector_6" d="M24.9327 14.5086H25.0267C25.1616 14.5086 25.2909 14.455 25.3863 14.3597C25.4817 14.2643 25.5353 14.1349 25.5353 14C25.5353 13.8651 25.4817 13.7358 25.3863 13.6404C25.2909 13.545 25.1616 13.4914 25.0267 13.4914H24.9327C24.7978 13.4914 24.6684 13.545 24.573 13.6404C24.4777 13.7358 24.4241 13.8651 24.4241 14C24.4241 14.1349 24.4777 14.2643 24.573 14.3597C24.6684 14.455 24.7978 14.5086 24.9327 14.5086Z" fill="#013366" stroke="#013366" stroke-width="0.0768953"/>
<path id="Vector_7" d="M4.80351 15.5943C4.81996 15.7157 4.87994 15.827 4.97228 15.9075C5.06463 15.988 5.18307 16.0322 5.30558 16.0319L5.30558 16.0321L5.30951 16.0317L5.36906 16.0254L5.36931 16.0254C5.43662 16.0179 5.50174 15.997 5.56087 15.9639C5.61999 15.9309 5.67192 15.8864 5.71361 15.833C5.7553 15.7796 5.78591 15.7185 5.80364 15.6531C5.82137 15.5877 5.82587 15.5195 5.81687 15.4524L5.81685 15.4522C5.75036 14.971 5.71697 14.4858 5.71692 14M4.80351 15.5943C4.73098 15.0659 4.69629 14.5331 4.69973 13.9998L4.73818 14M4.80351 15.5943C4.80351 15.5943 4.80351 15.5943 4.80351 15.5943L4.84161 15.5891M4.80351 15.5943C4.80352 15.5943 4.80352 15.5943 4.80352 15.5943L4.84161 15.5891M4.73818 14H4.69973C4.69973 13.8651 4.75331 13.7358 4.84869 13.6404C4.94407 13.545 5.07344 13.4914 5.20832 13.4914C5.34321 13.4914 5.47257 13.545 5.56795 13.6404C5.66333 13.7358 5.71692 13.8651 5.71692 14M4.73818 14C4.73818 13.8753 4.78771 13.7557 4.87588 13.6676C4.96405 13.5794 5.08363 13.5299 5.20832 13.5299C5.33301 13.5299 5.4526 13.5794 5.54077 13.6676C5.62894 13.7557 5.67847 13.8753 5.67847 14M4.73818 14C4.73475 14.5315 4.76932 15.0626 4.84161 15.5891M5.71692 14H5.67847M5.71692 14H5.67847M5.67847 14C5.67852 14.4876 5.71203 14.9745 5.77877 15.4575M5.77877 15.4575L4.84161 15.5891M5.77877 15.4575C5.78708 15.5195 5.78293 15.5826 5.76653 15.643C5.75014 15.7035 5.72185 15.76 5.68331 15.8093C5.64477 15.8587 5.59677 15.8998 5.54211 15.9304C5.48746 15.9609 5.42726 15.9802 5.36504 15.9872L5.77877 15.4575Z" fill="#013366" stroke="#013366" stroke-width="0.0768953"/>
<path id="Vector_8" d="M2.79806 19.1725H3.65372C3.78861 19.1725 3.91797 19.1189 4.01335 19.0235C4.10873 18.9281 4.16232 18.7988 4.16232 18.6639C4.16232 18.529 4.10873 18.3996 4.01335 18.3043C3.91797 18.2089 3.78861 18.1553 3.65372 18.1553H2.79806C2.66317 18.1553 2.53381 18.2089 2.43843 18.3043C2.34305 18.3996 2.28946 18.529 2.28946 18.6639C2.28946 18.7988 2.34305 18.9281 2.43843 19.0235C2.53381 19.1189 2.66317 19.1725 2.79806 19.1725Z" fill="#013366" stroke="#013366" stroke-width="0.0768953"/>
<g id="Union">
<mask id="path-9-outside-1_104_418" maskUnits="userSpaceOnUse" x="4.26703" y="1.4564" width="24" height="25" fill="black">
<rect fill="white" x="4.26703" y="1.4564" width="24" height="25"/>
<path fill-rule="evenodd" clip-rule="evenodd" d="M11.7557 24.627C13.183 25.2331 14.7186 25.5429 16.2692 25.5374C18.3264 25.5375 20.3461 24.9876 22.1194 23.9448C23.8927 22.9021 25.355 21.4042 26.3549 19.6064C27.3548 17.8087 27.856 15.7763 27.8066 13.7197C27.7572 11.6632 27.1589 9.65719 26.0738 7.9095C24.9887 6.16182 23.4562 4.73594 21.6349 3.77952C19.8136 2.8231 17.7697 2.3709 15.715 2.46973C13.6602 2.56856 11.6692 3.21484 9.94808 4.34165C8.22698 5.46846 6.83836 7.03483 5.926 8.8786C5.89667 8.93747 5.88029 9.0012 5.87715 9.06565L5.31166 10.2483C5.2781 10.32 5.26306 10.399 5.26792 10.478C5.27279 10.557 5.29739 10.6335 5.33949 10.7006C5.38159 10.7676 5.43984 10.8231 5.5089 10.8618C5.57796 10.9005 5.65562 10.9212 5.73479 10.9222C5.82369 10.9223 5.91083 10.8973 5.98621 10.8502C6.0616 10.8031 6.1222 10.7357 6.16105 10.6557L6.81299 9.28919C6.83758 9.23752 6.85253 9.18183 6.85713 9.12486C7.69516 7.50745 8.93659 6.13232 10.4626 5.13348C12.0429 4.09907 13.871 3.50583 15.7576 3.41518C17.6442 3.32452 19.5207 3.73975 21.193 4.61787C22.8652 5.49599 24.2723 6.80509 25.2687 8.40966C26.2652 10.0142 26.8146 11.8559 26.8602 13.7442C26.9058 15.6324 26.4459 17.4985 25.5281 19.1493C24.6104 20.8001 23.2681 22.1756 21.6402 23.1334C20.0123 24.0913 18.158 24.5966 16.2692 24.5971C14.8454 24.6039 13.4351 24.3208 12.1241 23.7653C10.8132 23.2098 9.62892 22.3933 8.64344 21.3657C8.55496 21.2899 8.44149 21.2496 8.32502 21.2527C8.20854 21.2558 8.09737 21.302 8.01305 21.3825C7.92874 21.4629 7.87728 21.5717 7.86867 21.6879C7.86005 21.8041 7.89489 21.9194 7.96643 22.0113C9.03926 23.131 10.3285 24.0209 11.7557 24.627Z"/>
</mask>
<path fill-rule="evenodd" clip-rule="evenodd" d="M11.7557 24.627C13.183 25.2331 14.7186 25.5429 16.2692 25.5374C18.3264 25.5375 20.3461 24.9876 22.1194 23.9448C23.8927 22.9021 25.355 21.4042 26.3549 19.6064C27.3548 17.8087 27.856 15.7763 27.8066 13.7197C27.7572 11.6632 27.1589 9.65719 26.0738 7.9095C24.9887 6.16182 23.4562 4.73594 21.6349 3.77952C19.8136 2.8231 17.7697 2.3709 15.715 2.46973C13.6602 2.56856 11.6692 3.21484 9.94808 4.34165C8.22698 5.46846 6.83836 7.03483 5.926 8.8786C5.89667 8.93747 5.88029 9.0012 5.87715 9.06565L5.31166 10.2483C5.2781 10.32 5.26306 10.399 5.26792 10.478C5.27279 10.557 5.29739 10.6335 5.33949 10.7006C5.38159 10.7676 5.43984 10.8231 5.5089 10.8618C5.57796 10.9005 5.65562 10.9212 5.73479 10.9222C5.82369 10.9223 5.91083 10.8973 5.98621 10.8502C6.0616 10.8031 6.1222 10.7357 6.16105 10.6557L6.81299 9.28919C6.83758 9.23752 6.85253 9.18183 6.85713 9.12486C7.69516 7.50745 8.93659 6.13232 10.4626 5.13348C12.0429 4.09907 13.871 3.50583 15.7576 3.41518C17.6442 3.32452 19.5207 3.73975 21.193 4.61787C22.8652 5.49599 24.2723 6.80509 25.2687 8.40966C26.2652 10.0142 26.8146 11.8559 26.8602 13.7442C26.9058 15.6324 26.4459 17.4985 25.5281 19.1493C24.6104 20.8001 23.2681 22.1756 21.6402 23.1334C20.0123 24.0913 18.158 24.5966 16.2692 24.5971C14.8454 24.6039 13.4351 24.3208 12.1241 23.7653C10.8132 23.2098 9.62892 22.3933 8.64344 21.3657C8.55496 21.2899 8.44149 21.2496 8.32502 21.2527C8.20854 21.2558 8.09737 21.302 8.01305 21.3825C7.92874 21.4629 7.87728 21.5717 7.86867 21.6879C7.86005 21.8041 7.89489 21.9194 7.96643 22.0113C9.03926 23.131 10.3285 24.0209 11.7557 24.627Z" fill="#013366"/>
<path d="M16.2692 25.5374L16.2692 25.4605H16.2689L16.2692 25.5374ZM11.7557 24.627L11.7858 24.5562L11.7557 24.627ZM22.1194 23.9448L22.1584 24.0111L22.1194 23.9448ZM26.3549 19.6064L26.2877 19.5691L26.3549 19.6064ZM27.8066 13.7197L27.8835 13.7179L27.8066 13.7197ZM26.0738 7.9095L26.0085 7.95006V7.95006L26.0738 7.9095ZM21.6349 3.77952L21.6706 3.71144L21.6349 3.77952ZM15.715 2.46973L15.7187 2.54654L15.715 2.46973ZM5.926 8.8786L5.99483 8.91288L5.99492 8.9127L5.926 8.8786ZM5.87715 9.06565L5.94652 9.09882L5.9532 9.08485L5.95395 9.06939L5.87715 9.06565ZM5.31166 10.2483L5.24228 10.2151L5.24201 10.2157L5.31166 10.2483ZM5.26792 10.478L5.19117 10.4827H5.19117L5.26792 10.478ZM5.33949 10.7006L5.40461 10.6597L5.33949 10.7006ZM5.5089 10.8618L5.4713 10.9288L5.5089 10.8618ZM5.73479 10.9222L5.73389 10.9991L5.73469 10.9991L5.73479 10.9222ZM5.98621 10.8502L5.94546 10.785L5.94546 10.785L5.98621 10.8502ZM6.16105 10.6557L6.23022 10.6894L6.23046 10.6889L6.16105 10.6557ZM6.81299 9.28919L6.88239 9.3223L6.88242 9.32224L6.81299 9.28919ZM6.85713 9.12486L6.78885 9.08949L6.78173 9.10324L6.78048 9.11868L6.85713 9.12486ZM10.4626 5.13348L10.5047 5.19782L10.4626 5.13348ZM15.7576 3.41518L15.7613 3.49198L15.7576 3.41518ZM21.193 4.61787L21.1572 4.68595L21.193 4.61787ZM25.2687 8.40966L25.2034 8.45022L25.2687 8.40966ZM26.8602 13.7442L26.9371 13.7423L26.8602 13.7442ZM25.5281 19.1493L25.4609 19.1119L25.5281 19.1493ZM21.6402 23.1334L21.6792 23.1997L21.6402 23.1334ZM16.2692 24.5971L16.2692 24.5202L16.2688 24.5202L16.2692 24.5971ZM12.1241 23.7653L12.0941 23.8361L12.1241 23.7653ZM8.64344 21.3657L8.69921 21.3122L8.69347 21.3073L8.64344 21.3657ZM8.32502 21.2527L8.32706 21.3296H8.32706L8.32502 21.2527ZM7.86867 21.6879L7.79198 21.6822L7.86867 21.6879ZM7.96643 22.0113L7.90541 22.0588L7.91091 22.0645L7.96643 22.0113ZM16.2689 25.4605C14.7287 25.466 13.2035 25.1583 11.7858 24.5562L11.7257 24.6978C13.1625 25.308 14.7084 25.6198 16.2695 25.6143L16.2689 25.4605ZM22.0804 23.8786C20.319 24.9144 18.3127 25.4606 16.2692 25.4605L16.2692 25.6143C18.3401 25.6144 20.3733 25.0609 22.1584 24.0111L22.0804 23.8786ZM26.2877 19.5691C25.2944 21.3549 23.8419 22.8427 22.0804 23.8786L22.1584 24.0111C23.9435 22.9614 25.4155 21.4536 26.4221 19.6438L26.2877 19.5691ZM27.7297 13.7216C27.7788 15.7644 27.2809 17.7833 26.2877 19.5691L26.4221 19.6438C27.4287 17.8341 27.9332 15.7881 27.8835 13.7179L27.7297 13.7216ZM26.0085 7.95006C27.0864 9.6861 27.6806 11.6787 27.7297 13.7216L27.8835 13.7179C27.8337 11.6476 27.2315 9.62827 26.1392 7.86894L26.0085 7.95006ZM21.5991 3.8476C23.4083 4.79765 24.9306 6.21402 26.0085 7.95006L26.1392 7.86894C25.0468 6.10961 23.5041 4.67424 21.6706 3.71144L21.5991 3.8476ZM15.7187 2.54654C17.7597 2.44836 19.79 2.89755 21.5991 3.8476L21.6706 3.71144C19.8372 2.74865 17.7797 2.29343 15.7113 2.39292L15.7187 2.54654ZM9.9902 4.40598C11.6998 3.28668 13.6776 2.64471 15.7187 2.54654L15.7113 2.39292C13.6428 2.49242 11.6385 3.143 9.90596 4.27732L9.9902 4.40598ZM5.99492 8.9127C6.9012 7.08122 8.28057 5.52528 9.9902 4.40598L9.90596 4.27732C8.1734 5.41163 6.77552 6.98844 5.85708 8.84449L5.99492 8.9127ZM5.95395 9.06939C5.95658 9.01547 5.97029 8.96214 5.99483 8.91288L5.85717 8.84431C5.82306 8.91279 5.804 8.98694 5.80035 9.0619L5.95395 9.06939ZM5.38103 10.2815L5.94652 9.09882L5.80778 9.03247L5.24228 10.2151L5.38103 10.2815ZM5.34467 10.4733C5.3406 10.4071 5.35319 10.3409 5.3813 10.2809L5.24201 10.2157C5.203 10.299 5.18552 10.3909 5.19117 10.4827L5.34467 10.4733ZM5.40461 10.6597C5.36936 10.6035 5.34875 10.5394 5.34467 10.4733L5.19117 10.4827C5.19683 10.5746 5.22543 10.6635 5.27437 10.7415L5.40461 10.6597ZM5.5465 10.7947C5.48866 10.7623 5.43987 10.7159 5.40461 10.6597L5.27437 10.7415C5.32331 10.8194 5.39102 10.8838 5.4713 10.9288L5.5465 10.7947ZM5.73568 10.8453C5.66938 10.8445 5.60434 10.8271 5.5465 10.7947L5.4713 10.9288C5.55158 10.9738 5.64187 10.998 5.73389 10.9991L5.73568 10.8453ZM5.94546 10.785C5.88232 10.8245 5.80934 10.8454 5.73488 10.8453L5.73469 10.9991C5.83804 10.9992 5.93933 10.9702 6.02697 10.9154L5.94546 10.785ZM6.09189 10.6221C6.05935 10.6891 6.0086 10.7456 5.94546 10.785L6.02697 10.9154C6.1146 10.8607 6.18504 10.7823 6.23021 10.6894L6.09189 10.6221ZM6.74359 9.25608L6.09165 10.6226L6.23046 10.6889L6.88239 9.3223L6.74359 9.25608ZM6.78048 9.11868C6.77663 9.16633 6.76413 9.21292 6.74356 9.25614L6.88242 9.32224C6.91104 9.26212 6.92842 9.19733 6.93377 9.13105L6.78048 9.11868ZM10.4205 5.06914C8.8834 6.07523 7.63296 7.46034 6.78885 9.08949L6.9254 9.16024C7.75735 7.55456 8.98977 6.18941 10.5047 5.19782L10.4205 5.06914ZM15.7539 3.33837C13.8536 3.42968 12.0123 4.02722 10.4205 5.06914L10.5047 5.19782C12.0736 4.17091 13.8884 3.58198 15.7613 3.49198L15.7539 3.33837ZM21.2287 4.54979C19.5443 3.6653 17.6542 3.24706 15.7539 3.33837L15.7613 3.49198C17.6342 3.40199 19.4971 3.8142 21.1572 4.68595L21.2287 4.54979ZM25.3341 8.36909C24.3304 6.75288 22.9131 5.43428 21.2287 4.54979L21.1572 4.68595C22.8173 5.5577 24.2142 6.8573 25.2034 8.45022L25.3341 8.36909ZM26.9371 13.7423C26.8911 11.8404 26.3377 9.98531 25.3341 8.36909L25.2034 8.45022C26.1926 10.0432 26.7381 11.8715 26.7833 13.746L26.9371 13.7423ZM25.5954 19.1867C26.5198 17.5239 26.983 15.6442 26.9371 13.7423L26.7833 13.746C26.8286 15.6205 26.3721 17.4731 25.4609 19.1119L25.5954 19.1867ZM21.6792 23.1997C23.3189 22.2349 24.6709 20.8494 25.5954 19.1867L25.4609 19.1119C24.5498 20.7508 23.2173 22.1163 21.6012 23.0672L21.6792 23.1997ZM16.2692 24.674C18.1717 24.6735 20.0395 24.1645 21.6792 23.1997L21.6012 23.0672C19.9851 24.018 18.1443 24.5197 16.2692 24.5202L16.2692 24.674ZM12.0941 23.8361C13.4147 24.3957 14.8353 24.6808 16.2696 24.674L16.2688 24.5202C14.8555 24.5269 13.4555 24.246 12.1541 23.6945L12.0941 23.8361ZM8.58794 21.4189C9.58064 22.4541 10.7736 23.2765 12.0941 23.8361L12.1541 23.6945C10.8528 23.143 9.6772 22.3326 8.69894 21.3124L8.58794 21.4189ZM8.32706 21.3296C8.42449 21.327 8.5194 21.3606 8.59341 21.4241L8.69347 21.3073C8.59053 21.2191 8.45849 21.1722 8.32297 21.1758L8.32706 21.3296ZM8.06612 21.4381C8.13665 21.3708 8.22964 21.3322 8.32706 21.3296L8.32297 21.1758C8.18745 21.1794 8.05809 21.2332 7.95998 21.3268L8.06612 21.4381ZM7.94535 21.6936C7.95256 21.5964 7.9956 21.5054 8.06612 21.4381L7.95998 21.3268C7.86188 21.4204 7.80201 21.547 7.79198 21.6822L7.94535 21.6936ZM8.02713 21.9641C7.96729 21.8872 7.93815 21.7908 7.94535 21.6936L7.79198 21.6822C7.78196 21.8174 7.8225 21.9515 7.90574 22.0585L8.02713 21.9641ZM11.7858 24.5562C10.3681 23.9541 9.08757 23.0702 8.02195 21.9581L7.91091 22.0645C8.99095 23.1917 10.2888 24.0876 11.7257 24.6978L11.7858 24.5562Z" fill="#013366" mask="url(#path-9-outside-1_104_418)"/>
</g>
</g>
</g>
</svg>
