<svg width="96" height="96" viewBox="0 0 96 96" fill="none" xmlns="http://www.w3.org/2000/svg">
<g id="796503" clip-path="url(#clip0_219_275)">
<g id="Group">
<g id="Group_2">
<path id="Vector" d="M33.7363 18.9456C31.822 18.9456 29.4289 19.4241 27.5146 20.3814C28.4719 21.3387 28.9504 22.2957 28.9504 23.7315C28.9504 26.6031 26.5573 28.5175 24.1645 28.5175C22.7287 28.5175 21.7714 28.0389 20.8143 27.0817C19.8571 28.996 19.3785 31.3891 19.3785 33.3034C19.3785 41.4397 26.079 47.6614 33.7365 47.6614C41.8728 47.6614 48.0945 40.9609 48.0945 33.3034C48.0943 25.6459 41.8724 18.9456 33.7363 18.9456Z" fill="#00BFFF"/>
</g>
</g>
<g id="Group_3">
<g id="Group_4">
<path id="Vector_2" d="M93.0826 79.2491L71.5457 57.2336L68.1955 60.5838L61.0165 53.4048C64.8454 47.6616 67.2383 40.9611 67.2383 33.3036C67.2383 17.0313 54.3161 2.67327 38.0437 0.280194C15.5495 -2.5914 -3.59443 17.0313 0.712964 40.004C3.10604 53.4048 14.1137 63.9341 27.5146 66.327C37.5652 68.2413 46.6585 65.3697 53.8375 60.1052L61.0165 67.2842L57.6664 71.1131L79.2034 93.1286C83.0323 96.9575 89.254 96.9575 92.6041 93.1286C96.9115 88.821 96.9115 83.0778 93.0826 79.2491ZM33.7363 57.2334C20.3356 57.2334 9.80628 46.7043 9.80628 33.3033C9.80628 19.9024 20.3354 9.37351 33.7363 9.37351C47.1373 9.37351 57.6664 19.9026 57.6664 33.3036C57.6664 46.7045 47.1371 57.2334 33.7363 57.2334Z" fill="#165DB2"/>
</g>
</g>
</g>
<defs>
<clipPath id="clip0_219_275">
<rect width="96" height="96" fill="white"/>
</clipPath>
</defs>
</svg>
