<svg width="28" height="28" viewBox="0 0 28 28" fill="none" xmlns="http://www.w3.org/2000/svg">
<g id="9427961">
<path id="Vector" d="M24.2206 8.16326V8.16316C24.2194 7.7031 24.0367 7.26213 23.7121 6.93607L23.712 6.936L18.5185 1.74243L18.5184 1.74237C18.1923 1.41781 17.7514 1.23506 17.2913 1.23383H17.2912H5.51509C5.05471 1.23383 4.61318 1.41671 4.28765 1.74225C3.96211 2.06779 3.77923 2.50931 3.77923 2.96969V25.0303C3.77923 25.4907 3.96211 25.9322 4.28765 26.2577C4.61318 26.5833 5.05471 26.7661 5.51509 26.7661H22.4848C22.9452 26.7661 23.3867 26.5833 23.7122 26.2577C24.0378 25.9322 24.2206 25.4907 24.2206 25.0303V8.16326ZM18.2812 2.81497L22.6395 7.17322H19.0908C18.8761 7.17322 18.6702 7.08792 18.5184 6.93609C18.3665 6.78427 18.2812 6.57834 18.2812 6.36362V2.81497ZM4.70549 25.0303V2.96969C4.70549 2.75497 4.79079 2.54904 4.94261 2.39722C5.09444 2.24539 5.30037 2.16009 5.51509 2.16009H17.2905C17.312 2.16092 17.3336 2.16262 17.355 2.16518V6.36362C17.355 6.824 17.5379 7.26552 17.8634 7.59106C18.1889 7.9166 18.6305 8.09948 19.0908 8.09948H23.2893C23.2919 8.12091 23.2936 8.14244 23.2944 8.16402V25.0303C23.2944 25.245 23.2091 25.4509 23.0573 25.6028C22.9054 25.7546 22.6995 25.8399 22.4848 25.8399H5.51509C5.30037 25.8399 5.09444 25.7546 4.94261 25.6028C4.79079 25.4509 4.70549 25.245 4.70549 25.0303Z" fill="#013366" stroke="#013366" stroke-width="0.0777778"/>
<path id="Vector_2" d="M7.63632 12.3419H20.3636C20.4864 12.3419 20.6042 12.2932 20.6911 12.2063C20.7779 12.1194 20.8267 12.0016 20.8267 11.8788C20.8267 11.756 20.7779 11.6382 20.6911 11.5513C20.6042 11.4645 20.4864 11.4157 20.3636 11.4157H7.63632C7.51349 11.4157 7.3957 11.4645 7.30884 11.5513C7.22199 11.6382 7.17319 11.756 7.17319 11.8788C7.17319 12.0016 7.22199 12.1194 7.30884 12.2063C7.3957 12.2932 7.51349 12.3419 7.63632 12.3419Z" fill="#013366" stroke="#013366" stroke-width="0.0777778"/>
<path id="Vector_3" d="M7.63632 15.7359H20.3636C20.4864 15.7359 20.6042 15.6871 20.6911 15.6002C20.7779 15.5134 20.8267 15.3956 20.8267 15.2727C20.8267 15.1499 20.7779 15.0321 20.6911 14.9453C20.6042 14.8584 20.4864 14.8096 20.3636 14.8096H7.63632C7.51349 14.8096 7.3957 14.8584 7.30884 14.9453C7.22199 15.0321 7.17319 15.1499 7.17319 15.2727C7.17319 15.3956 7.22199 15.5134 7.30884 15.6002C7.3957 15.6871 7.51349 15.7359 7.63632 15.7359Z" fill="#013366" stroke="#013366" stroke-width="0.0777778"/>
<path id="Vector_4" d="M7.63632 19.1298H20.3636C20.4864 19.1298 20.6042 19.081 20.6911 18.9942C20.7779 18.9073 20.8267 18.7895 20.8267 18.6667C20.8267 18.5439 20.7779 18.4261 20.6911 18.3392C20.6042 18.2523 20.4864 18.2036 20.3636 18.2036H7.63632C7.51349 18.2036 7.3957 18.2523 7.30884 18.3392C7.22199 18.4261 7.17319 18.5439 7.17319 18.6667C7.17319 18.7895 7.22199 18.9073 7.30884 18.9942C7.3957 19.081 7.51349 19.1298 7.63632 19.1298Z" fill="#013366" stroke="#013366" stroke-width="0.0777778"/>
<path id="Vector_5" d="M7.63632 22.5238H16.1212C16.244 22.5238 16.3618 22.475 16.4487 22.3881C16.5355 22.3013 16.5843 22.1835 16.5843 22.0606C16.5843 21.9378 16.5355 21.82 16.4487 21.7331C16.3618 21.6463 16.244 21.5975 16.1212 21.5975H7.63632C7.51349 21.5975 7.3957 21.6463 7.30884 21.7331C7.22199 21.82 7.17319 21.9378 7.17319 22.0606C7.17319 22.1835 7.22199 22.3013 7.30884 22.3881C7.3957 22.475 7.51349 22.5238 7.63632 22.5238Z" fill="#013366" stroke="#013366" stroke-width="0.0777778"/>
</g>
</svg>
