<svg width="20" height="20" viewBox="0 0 20 20" fill="none" xmlns="http://www.w3.org/2000/svg">
<g id="Frame">
<path id="Vector" d="M6.66666 13.3333L13.9334 12.7277C16.2072 12.5383 16.7176 12.0417 16.9696 9.77408L17.5 5" stroke="#334C66" stroke-width="1.25" stroke-linecap="round"/>
<path id="Vector_2" d="M5 5H18.3333" stroke="#334C66" stroke-width="1.25" stroke-linecap="round"/>
<path id="Vector_3" d="M5.00001 18.3333C5.92048 18.3333 6.66668 17.5871 6.66668 16.6667C6.66668 15.7462 5.92048 15 5.00001 15C4.07954 15 3.33334 15.7462 3.33334 16.6667C3.33334 17.5871 4.07954 18.3333 5.00001 18.3333Z" stroke="#334C66" stroke-width="1.25"/>
<path id="Vector_4" d="M14.1667 18.3333C15.0871 18.3333 15.8333 17.5871 15.8333 16.6667C15.8333 15.7462 15.0871 15 14.1667 15C13.2462 15 12.5 15.7462 12.5 16.6667C12.5 17.5871 13.2462 18.3333 14.1667 18.3333Z" stroke="#334C66" stroke-width="1.25"/>
<path id="Vector_5" d="M6.66666 16.6665H12.5" stroke="#334C66" stroke-width="1.25" stroke-linecap="round"/>
<path id="Vector_6" d="M1.66666 1.6665H2.47166C3.25889 1.6665 3.94511 2.187 4.13604 2.92895L6.61542 12.5636C6.74071 13.0505 6.63349 13.5663 6.32352 13.9678L5.52676 14.9998" stroke="#334C66" stroke-width="1.25" stroke-linecap="round"/>
</g>
</svg>
