<svg width="41" height="40" viewBox="0 0 41 40" fill="none" xmlns="http://www.w3.org/2000/svg">
<g id="Frame 213">
<rect id="Rectangle 17" x="0.175439" y="0.175439" width="39.7801" height="39.6491" rx="5.82456" fill="white" stroke="#DDE7F6" stroke-width="0.350877"/>
<g id="Group 18">
<path id="Vector" d="M25.6122 28.681V13.0518H14.1377V28.3621C14.1377 28.7129 14.4246 29 14.7752 29H24.9747C25.0512 29 25.1277 28.9872 25.1946 28.9585L25.6122 28.681Z" fill="#00BFFF"/>
<path id="Vector_2" d="M25.6119 10.5H14.1375C13.7854 10.5 13.5 10.7857 13.5 11.138V13.0518C13.5 13.4041 13.7854 13.6897 14.1375 13.6897H25.6119C25.964 13.6897 26.2494 13.4041 26.2494 13.0518V11.138C26.2494 10.7857 25.964 10.5 25.6119 10.5Z" fill="#1A6ED3"/>
<path id="Vector_3" d="M23.6992 17.8363H16.0496C15.6975 17.8363 15.4121 18.1219 15.4121 18.4742V23.5776C15.4121 23.9299 15.6975 24.2156 16.0496 24.2156H23.6992C24.0513 24.2156 24.3367 23.9299 24.3367 23.5776V18.4742C24.3367 18.1219 24.0513 17.8363 23.6992 17.8363Z" fill="white"/>
<path id="Vector_4" d="M21.7871 20.388H17.9623C17.786 20.388 17.6436 20.2454 17.6436 20.069C17.6436 19.8926 17.786 19.75 17.9623 19.75H21.7871C21.9634 19.75 22.1058 19.8926 22.1058 20.069C22.1058 20.2454 21.9634 20.388 21.7871 20.388Z" fill="#E1E8EB"/>
<path id="Vector_5" d="M21.1499 22.3017H18.6C18.4237 22.3017 18.2812 22.1592 18.2812 21.9828C18.2812 21.8064 18.4237 21.6638 18.6 21.6638H21.1499C21.3261 21.6638 21.4686 21.8064 21.4686 21.9828C21.4686 22.1592 21.3261 22.3017 21.1499 22.3017Z" fill="#E1E8EB"/>
<g id="Group">
<path id="Vector_6" d="M14.7744 10.5001H15.4119V13.6898H14.7744V10.5001Z" fill="#165DB2"/>
<path id="Vector_7" d="M16.6875 10.5H17.325V13.6896H16.6875V10.5Z" fill="#165DB2"/>
<path id="Vector_8" d="M18.5996 10.5H19.2371V13.6896H18.5996V10.5Z" fill="#165DB2"/>
<path id="Vector_9" d="M20.5117 10.5H21.1492V13.6896H20.5117V10.5Z" fill="#165DB2"/>
<path id="Vector_10" d="M22.4238 10.5H23.0613V13.6896H22.4238V10.5Z" fill="#165DB2"/>
<path id="Vector_11" d="M24.3359 10.5H24.9734V13.6896H24.3359V10.5Z" fill="#165DB2"/>
</g>
</g>
</g>
</svg>
