<svg width="20" height="20" viewBox="0 0 20 20" fill="none" xmlns="http://www.w3.org/2000/svg">
<g id="Frame">
<path id="Vector" d="M10.2603 14.3255C10.1003 14.2278 9.89905 14.2278 9.73904 14.3255L6.12739 16.5315C5.74784 16.7634 5.27722 16.4214 5.38041 15.9888L6.36237 11.8722C6.40587 11.6899 6.34369 11.4985 6.20129 11.3765L2.98719 8.62326C2.64942 8.33393 2.82919 7.78067 3.27251 7.74513L7.49107 7.40693C7.67797 7.39195 7.84077 7.27366 7.91278 7.10054L9.53802 3.19296C9.70881 2.78232 10.2905 2.78231 10.4613 3.19296L12.0866 7.10055C12.1586 7.27366 12.3214 7.39195 12.5083 7.40693L16.7269 7.74513C17.1702 7.78067 17.35 8.33393 17.0122 8.62326L13.7981 11.3765C13.6557 11.4985 13.5935 11.6899 13.637 11.8722L14.619 15.9888C14.7222 16.4214 14.2516 16.7634 13.872 16.5316L10.2603 14.3255Z" fill="#F5912E"/>
</g>
</svg>
