<svg width="20" height="20" viewBox="0 0 20 20" fill="none" xmlns="http://www.w3.org/2000/svg">
<g id="Frame">
<path id="Vector" d="M6.66602 13.3333L13.9328 12.7277C16.2065 12.5383 16.7169 12.0417 16.9689 9.77408L17.4993 5" stroke="#334C66" stroke-width="1.25" stroke-linecap="round"/>
<path id="Vector_2" d="M5 5H18.3333" stroke="#334C66" stroke-width="1.25" stroke-linecap="round"/>
<path id="Vector_3" d="M5.00065 18.3333C5.92113 18.3333 6.66732 17.5871 6.66732 16.6667C6.66732 15.7462 5.92113 15 5.00065 15C4.08018 15 3.33398 15.7462 3.33398 16.6667C3.33398 17.5871 4.08018 18.3333 5.00065 18.3333Z" stroke="#334C66" stroke-width="1.25"/>
<path id="Vector_4" d="M14.1667 18.3333C15.0871 18.3333 15.8333 17.5871 15.8333 16.6667C15.8333 15.7462 15.0871 15 14.1667 15C13.2462 15 12.5 15.7462 12.5 16.6667C12.5 17.5871 13.2462 18.3333 14.1667 18.3333Z" stroke="#334C66" stroke-width="1.25"/>
<path id="Vector_5" d="M6.66602 16.6666H12.4994" stroke="#334C66" stroke-width="1.25" stroke-linecap="round"/>
<path id="Vector_6" d="M1.66602 1.66663H2.47102C3.25825 1.66663 3.94447 2.18712 4.1354 2.92907L6.61478 12.5637C6.74007 13.0506 6.63285 13.5664 6.32288 13.968L5.52612 15" stroke="#334C66" stroke-width="1.25" stroke-linecap="round"/>
</g>
</svg>
