<svg width="20" height="20" viewBox="0 0 20 20" fill="none" xmlns="http://www.w3.org/2000/svg">
<g id="Frame">
<path id="Vector" d="M16.251 4.5834L15.7346 12.9377C15.6026 15.0721 15.5366 16.1393 15.0016 16.9067C14.7371 17.286 14.3966 17.6062 14.0016 17.8467C13.2027 18.3334 12.1335 18.3334 9.99489 18.3334C7.85358 18.3334 6.78289 18.3334 5.98352 17.8458C5.58831 17.6048 5.24764 17.2841 4.98321 16.9041C4.44838 16.1356 4.38385 15.0668 4.25482 12.9294L3.75098 4.5834" stroke="#12366C" stroke-width="1.25" stroke-linecap="round"/>
<path id="Vector_2" d="M2.50098 4.58323H17.501M13.3807 4.58323L12.8119 3.40967C12.434 2.63012 12.245 2.24033 11.9191 1.99724C11.8468 1.94332 11.7702 1.89535 11.6901 1.85381C11.3292 1.66656 10.8961 1.66656 10.0297 1.66656C9.14164 1.66656 8.69764 1.66656 8.33071 1.86166C8.24939 1.90491 8.17179 1.95482 8.09872 2.01087C7.76901 2.26382 7.58484 2.66786 7.21649 3.47595L6.71174 4.58323" stroke="#12366C" stroke-width="1.25" stroke-linecap="round"/>
</g>
</svg>
