<svg width="81" height="80" viewBox="0 0 81 80" fill="none" xmlns="http://www.w3.org/2000/svg">
<g id="Frame 213">
<rect id="Rectangle 17" x="0.350877" y="0.350877" width="79.5602" height="79.2982" rx="11.6491" fill="white" stroke="#DDE7F6" stroke-width="0.701754"/>
<g id="Group 18">
<path id="Vector" d="M51.2238 57.3621V26.1035H28.2749V56.7242C28.2749 57.4259 28.8486 58 29.5498 58H49.9489C50.1019 58 50.2549 57.9745 50.3887 57.9171L51.2238 57.3621Z" fill="#00BFFF"/>
<path id="Vector_2" d="M51.2239 21.0001H28.2749C27.5708 21.0001 27 21.5713 27 22.276V26.1035C27 26.8082 27.5708 27.3794 28.2749 27.3794H51.2239C51.928 27.3794 52.4988 26.8082 52.4988 26.1035V22.276C52.4988 21.5713 51.928 21.0001 51.2239 21.0001Z" fill="#1A6ED3"/>
<path id="Vector_3" d="M47.3989 35.6725H32.0996C31.3955 35.6725 30.8247 36.2437 30.8247 36.9484V47.1553C30.8247 47.8599 31.3955 48.4311 32.0996 48.4311H47.3989C48.1031 48.4311 48.6739 47.8599 48.6739 47.1553V36.9484C48.6739 36.2437 48.1031 35.6725 47.3989 35.6725Z" fill="white"/>
<path id="Vector_4" d="M43.5737 40.7759H35.9241C35.5716 40.7759 35.2866 40.4908 35.2866 40.138C35.2866 39.7852 35.5716 39.5001 35.9241 39.5001H43.5737C43.9263 39.5001 44.2112 39.7852 44.2112 40.138C44.2112 40.4908 43.9263 40.7759 43.5737 40.7759Z" fill="#E1E8EB"/>
<path id="Vector_5" d="M42.2997 44.6035H37.2C36.8474 44.6035 36.5625 44.3183 36.5625 43.9656C36.5625 43.6128 36.8474 43.3276 37.2 43.3276H42.2997C42.6522 43.3276 42.9372 43.6128 42.9372 43.9656C42.9372 44.3183 42.6522 44.6035 42.2997 44.6035Z" fill="#E1E8EB"/>
<g id="Group">
<path id="Vector_6" d="M29.5498 21.0002H30.8247V27.3795H29.5498V21.0002Z" fill="#165DB2"/>
<path id="Vector_7" d="M33.3745 21H34.6495V27.3793H33.3745V21Z" fill="#165DB2"/>
<path id="Vector_8" d="M37.1992 21H38.4742V27.3793H37.1992V21Z" fill="#165DB2"/>
<path id="Vector_9" d="M41.0239 21H42.2989V27.3793H41.0239V21Z" fill="#165DB2"/>
<path id="Vector_10" d="M44.8486 21H46.1236V27.3793H44.8486V21Z" fill="#165DB2"/>
<path id="Vector_11" d="M48.6738 21H49.9488V27.3793H48.6738V21Z" fill="#165DB2"/>
</g>
</g>
</g>
</svg>
