<svg width="32" height="32" viewBox="0 0 32 32" fill="none" xmlns="http://www.w3.org/2000/svg">
<circle cx="16" cy="16" r="16" fill="white"/>
<path d="M15.7983 9.59395H14.0079C13.7806 9.59395 13.5492 9.64267 13.3137 9.7401C13.0864 9.83754 12.859 9.96745 12.6317 10.1298C12.4044 10.2922 12.1851 10.4871 11.974 10.7144C11.771 10.9337 11.5843 11.1691 11.4138 11.4208L11.7792 9.47216H17.1989L12.3638 17.8758H14.7265C14.9539 17.8758 15.1812 17.8271 15.4085 17.7296C15.644 17.6322 15.8754 17.5023 16.1028 17.3399C16.3301 17.1775 16.5453 16.9867 16.7482 16.7675C16.9594 16.5401 17.1502 16.3006 17.3207 16.0489L16.9553 17.9976H10.9875L15.7983 9.59395Z" fill="#1D4B89"/>
<path d="M14.5803 23.478V23.4171C14.7184 23.4171 14.8361 23.3603 14.9335 23.2466C15.031 23.133 15.0797 22.9056 15.0797 22.5646V15.8661C15.0797 15.5251 15.031 15.2977 14.9335 15.184C14.8361 15.0704 14.7184 15.0135 14.5803 15.0135V14.9526H18.0758C18.7659 14.9526 19.3302 15.0744 19.7687 15.318C20.2071 15.5535 20.5278 15.8539 20.7308 16.2193C20.9338 16.5846 21.015 16.9784 20.9744 17.4006C20.9419 17.8228 20.7917 18.2166 20.5238 18.582C20.2639 18.9393 19.8823 19.2397 19.3789 19.4833C18.8836 19.7269 18.2747 19.8486 17.552 19.8486H16.2976V22.5646C16.2976 22.9056 16.3463 23.133 16.4437 23.2466C16.5412 23.3603 16.6589 23.4171 16.7969 23.4171V23.478H14.5803ZM16.2976 15.0744V19.7269H17.6738C18.2422 19.7187 18.6969 19.601 19.0379 19.3737C19.3789 19.1463 19.6184 18.8621 19.7565 18.5211C19.8945 18.172 19.9392 17.7985 19.8904 17.4006C19.8498 16.9947 19.724 16.6212 19.5129 16.2802C19.3099 15.931 19.0298 15.6428 18.6725 15.4154C18.3234 15.1881 17.9134 15.0744 17.4424 15.0744H16.2976Z" fill="#1D4B89"/>
<circle cx="15.9999" cy="15.9997" r="11" stroke="#1D4B89" stroke-width="0.588235"/>
</svg>
