<svg width="32" height="32" viewBox="0 0 32 32" fill="none" xmlns="http://www.w3.org/2000/svg">
<circle cx="16" cy="16" r="16" fill="#1D4B89"/>
<path d="M15.7983 9.59371H14.0079C13.7806 9.59371 13.5492 9.64243 13.3137 9.73986C13.0864 9.83729 12.859 9.9672 12.6317 10.1296C12.4044 10.292 12.1851 10.4868 11.974 10.7142C11.771 10.9334 11.5843 11.1689 11.4138 11.4206L11.7792 9.47192H17.1989L12.3638 17.8755H14.7265C14.9539 17.8755 15.1812 17.8268 15.4085 17.7294C15.644 17.6319 15.8754 17.502 16.1028 17.3396C16.3301 17.1773 16.5453 16.9864 16.7482 16.7672C16.9594 16.5399 17.1502 16.3004 17.3207 16.0487L16.9553 17.9973H10.9875L15.7983 9.59371Z" fill="white"/>
<path d="M14.5803 23.4778V23.4169C14.7184 23.4169 14.8361 23.3601 14.9335 23.2464C15.031 23.1327 15.0797 22.9054 15.0797 22.5643V15.8658C15.0797 15.5248 15.031 15.2975 14.9335 15.1838C14.8361 15.0701 14.7184 15.0133 14.5803 15.0133V14.9524H18.0758C18.7659 14.9524 19.3302 15.0742 19.7687 15.3178C20.2071 15.5532 20.5278 15.8536 20.7308 16.219C20.9338 16.5844 21.015 16.9782 20.9744 17.4004C20.9419 17.8226 20.7917 18.2164 20.5238 18.5818C20.2639 18.939 19.8823 19.2394 19.3789 19.483C18.8836 19.7266 18.2747 19.8484 17.552 19.8484H16.2976V22.5643C16.2976 22.9054 16.3463 23.1327 16.4437 23.2464C16.5412 23.3601 16.6589 23.4169 16.7969 23.4169V23.4778H14.5803ZM16.2976 15.0742V19.7266H17.6738C18.2422 19.7185 18.6969 19.6008 19.0379 19.3734C19.3789 19.1461 19.6184 18.8619 19.7565 18.5209C19.8945 18.1717 19.9392 17.7982 19.8904 17.4004C19.8498 16.9944 19.724 16.6209 19.5129 16.2799C19.3099 15.9308 19.0298 15.6425 18.6725 15.4152C18.3234 15.1879 17.9134 15.0742 17.4424 15.0742H16.2976Z" fill="white"/>
<circle cx="15.9999" cy="15.9999" r="11" stroke="white" stroke-width="0.588235"/>
</svg>
