<svg width="172" height="194" viewBox="0 0 172 194" fill="none" xmlns="http://www.w3.org/2000/svg">
<g id="Group 18">
<path id="Vector" d="M163.081 190.655V26.7589H8.58398V187.311C8.58398 190.99 12.4464 194 17.1671 194H154.498C155.528 194 156.558 193.866 157.459 193.565L163.081 190.655Z" fill="#00BFFF"/>
<path id="Vector_2" d="M163.08 0.000457764H8.58316C3.84281 0.000457764 0 2.99552 0 6.69011V26.7591C0 30.4537 3.84281 33.4487 8.58316 33.4487H163.08C167.82 33.4487 171.663 30.4537 171.663 26.7591V6.69011C171.663 2.99552 167.82 0.000457764 163.08 0.000457764Z" fill="#1A6ED3"/>
<path id="Vector_3" d="M137.331 76.9316H34.3332C29.5928 76.9316 25.75 79.9267 25.75 83.6213V137.138C25.75 140.833 29.5928 143.828 34.3332 143.828H137.331C142.071 143.828 145.914 140.833 145.914 137.138V83.6213C145.914 79.9267 142.071 76.9316 137.331 76.9316Z" fill="white"/>
<path id="Vector_4" d="M111.581 103.69H60.0821C57.7089 103.69 55.7905 102.195 55.7905 100.345C55.7905 98.4956 57.7089 97.0005 60.0821 97.0005H111.581C113.954 97.0005 115.873 98.4956 115.873 100.345C115.873 102.195 113.954 103.69 111.581 103.69Z" fill="#E1E8EB"/>
<path id="Vector_5" d="M103 123.759H68.6671C66.2938 123.759 64.3755 122.264 64.3755 120.414C64.3755 118.564 66.2938 117.069 68.6671 117.069H103C105.373 117.069 107.291 118.564 107.291 120.414C107.291 122.264 105.373 123.759 103 123.759Z" fill="#E1E8EB"/>
<g id="Group">
<path id="Vector_6" d="M17.166 0.000244141H25.7492V33.4485H17.166V0.000244141Z" fill="#165DB2"/>
<path id="Vector_7" d="M42.9165 0H51.4997V33.4483H42.9165V0Z" fill="#165DB2"/>
<path id="Vector_8" d="M68.6636 0H77.2467V33.4483H68.6636V0Z" fill="#165DB2"/>
<path id="Vector_9" d="M94.4141 0H102.997V33.4483H94.4141V0Z" fill="#165DB2"/>
<path id="Vector_10" d="M120.164 0H128.747V33.4483H120.164V0Z" fill="#165DB2"/>
<path id="Vector_11" d="M145.914 0H154.497V33.4483H145.914V0Z" fill="#165DB2"/>
</g>
</g>
</svg>
