<svg width="94" height="106" viewBox="0 0 94 106" fill="none" xmlns="http://www.w3.org/2000/svg">
<g id="Group 18">
<path id="Vector" d="M88.5376 104.046V15.2368H4.82129V102.234C4.82129 104.228 6.9142 105.859 9.47219 105.859H83.8867C84.4448 105.859 85.0029 105.786 85.4912 105.623L88.5376 104.046Z" fill="#00BFFF"/>
<path id="Vector_2" d="M88.5371 0.737549H4.82083C2.2522 0.737549 0.169922 2.36046 0.169922 4.36243V15.2371C0.169922 17.239 2.2522 18.862 4.82083 18.862H88.5371C91.1057 18.862 93.188 17.239 93.188 15.2371V4.36243C93.188 2.36046 91.1057 0.737549 88.5371 0.737549Z" fill="#1A6ED3"/>
<path id="Vector_3" d="M74.5848 42.4238H18.774C16.2053 42.4238 14.123 44.0467 14.123 46.0487V75.0478C14.123 77.0497 16.2053 78.6726 18.774 78.6726H74.5848C77.1534 78.6726 79.2357 77.0497 79.2357 75.0478V46.0487C79.2357 44.0467 77.1534 42.4238 74.5848 42.4238Z" fill="white"/>
<path id="Vector_4" d="M60.6313 56.9232H32.7258C31.4399 56.9232 30.4004 56.1131 30.4004 55.1108C30.4004 54.1085 31.4399 53.2983 32.7258 53.2983H60.6313C61.9172 53.2983 62.9567 54.1085 62.9567 55.1108C62.9567 56.1131 61.9172 56.9232 60.6313 56.9232Z" fill="#E1E8EB"/>
<path id="Vector_5" d="M55.9818 67.7977H37.3782C36.0922 67.7977 35.0527 66.9876 35.0527 65.9853C35.0527 64.983 36.0922 64.1729 37.3782 64.1729H55.9818C57.2678 64.1729 58.3073 64.983 58.3073 65.9853C58.3073 66.9876 57.2678 67.7977 55.9818 67.7977Z" fill="#E1E8EB"/>
<g id="Group">
<path id="Vector_6" d="M9.4707 0.737061H14.1216V18.8615H9.4707V0.737061Z" fill="#165DB2"/>
<path id="Vector_7" d="M23.4238 0.737061H28.0747V18.8615H23.4238V0.737061Z" fill="#165DB2"/>
<path id="Vector_8" d="M37.376 0.737061H42.0269V18.8615H37.376V0.737061Z" fill="#165DB2"/>
<path id="Vector_9" d="M51.3291 0.737061H55.98V18.8615H51.3291V0.737061Z" fill="#165DB2"/>
<path id="Vector_10" d="M65.2812 0.737061H69.9322V18.8615H65.2812V0.737061Z" fill="#165DB2"/>
<path id="Vector_11" d="M79.2344 0.737061H83.8853V18.8615H79.2344V0.737061Z" fill="#165DB2"/>
</g>
</g>
</svg>
