<svg width="41" height="40" viewBox="0 0 41 40" fill="none" xmlns="http://www.w3.org/2000/svg">
<g id="Frame">
<path id="Vector" d="M12.1666 14.167L17.07 17.066C19.9286 18.7562 21.0713 18.7562 23.93 17.066L28.8333 14.167" stroke="#5358FC" stroke-width="2.5" stroke-linecap="round" stroke-linejoin="round"/>
<path id="Vector_2" d="M3.85965 22.4591C3.96862 27.5682 4.02308 30.1229 5.9083 32.0152C7.79352 33.9077 10.4173 33.9736 15.6648 34.1054C18.8989 34.1867 22.1012 34.1867 25.3354 34.1054C30.5829 33.9736 33.2066 33.9077 35.0917 32.0152C36.9771 30.1229 37.0316 27.5682 37.1404 22.4591C37.1756 20.8162 37.1756 19.1831 37.1404 17.5404C37.0316 12.4311 36.9771 9.87649 35.0917 7.98411C33.2066 6.09173 30.5829 6.02581 25.3354 5.89396C22.1012 5.81269 18.8989 5.81269 15.6647 5.89394C10.4173 6.02578 7.79352 6.09169 5.9083 7.98409C4.02308 9.87648 3.9686 12.4311 3.85965 17.5402C3.82462 19.1831 3.82462 20.8162 3.85965 22.4591Z" stroke="#5358FC" stroke-width="2.5" stroke-linejoin="round"/>
</g>
</svg>
