<svg width="161" height="22" viewBox="0 0 161 22" fill="none" xmlns="http://www.w3.org/2000/svg">
<path d="M3.24 13.64H9.52V16H1.49012e-08V13.84L6.24 4.4H1.49012e-08V2.04H9.52V4.2L3.24 13.64ZM10.1834 10.42C10.1834 9.3 10.4034 8.30667 10.8434 7.44C11.2968 6.57333 11.9034 5.90667 12.6634 5.44C13.4368 4.97333 14.2968 4.74 15.2434 4.74C16.0701 4.74 16.7901 4.90667 17.4034 5.24C18.0301 5.57333 18.5301 5.99333 18.9034 6.5V4.92H21.7234V16H18.9034V14.38C18.5434 14.9 18.0434 15.3333 17.4034 15.68C16.7768 16.0133 16.0501 16.18 15.2234 16.18C14.2901 16.18 13.4368 15.94 12.6634 15.46C11.9034 14.98 11.2968 14.3067 10.8434 13.44C10.4034 12.56 10.1834 11.5533 10.1834 10.42ZM18.9034 10.46C18.9034 9.78 18.7701 9.2 18.5034 8.72C18.2368 8.22667 17.8768 7.85333 17.4234 7.6C16.9701 7.33333 16.4834 7.2 15.9634 7.2C15.4434 7.2 14.9634 7.32667 14.5234 7.58C14.0834 7.83333 13.7234 8.20667 13.4434 8.7C13.1768 9.18 13.0434 9.75333 13.0434 10.42C13.0434 11.0867 13.1768 11.6733 13.4434 12.18C13.7234 12.6733 14.0834 13.0533 14.5234 13.32C14.9768 13.5867 15.4568 13.72 15.9634 13.72C16.4834 13.72 16.9701 13.5933 17.4234 13.34C17.8768 13.0733 18.2368 12.7 18.5034 12.22C18.7701 11.7267 18.9034 11.14 18.9034 10.46ZM26.2581 6.64C26.6181 6.05333 27.0848 5.59333 27.6581 5.26C28.2448 4.92667 28.9115 4.76 29.6581 4.76V7.7H28.9181C28.0381 7.7 27.3715 7.90667 26.9181 8.32C26.4781 8.73333 26.2581 9.45333 26.2581 10.48V16H23.4581V4.92H26.2581V6.64ZM31.9641 3.6C31.4707 3.6 31.0574 3.44667 30.7241 3.14C30.4041 2.82 30.2441 2.42667 30.2441 1.96C30.2441 1.49333 30.4041 1.10667 30.7241 0.799999C31.0574 0.479999 31.4707 0.319999 31.9641 0.319999C32.4574 0.319999 32.8641 0.479999 33.1841 0.799999C33.5174 1.10667 33.6841 1.49333 33.6841 1.96C33.6841 2.42667 33.5174 2.82 33.1841 3.14C32.8641 3.44667 32.4574 3.6 31.9641 3.6ZM33.3441 4.92V16H30.5441V4.92H33.3441ZM41.2505 4.76C42.5705 4.76 43.6371 5.18 44.4505 6.02C45.2638 6.84667 45.6705 8.00667 45.6705 9.5V16H42.8705V9.88C42.8705 9 42.6505 8.32667 42.2105 7.86C41.7705 7.38 41.1705 7.14 40.4105 7.14C39.6371 7.14 39.0238 7.38 38.5705 7.86C38.1305 8.32667 37.9105 9 37.9105 9.88V16H35.1105V4.92H37.9105V6.3C38.2838 5.82 38.7571 5.44667 39.3305 5.18C39.9171 4.9 40.5571 4.76 41.2505 4.76ZM46.6131 10.42C46.6131 9.3 46.8331 8.30667 47.2731 7.44C47.7265 6.57333 48.3331 5.90667 49.0931 5.44C49.8665 4.97333 50.7265 4.74 51.6731 4.74C52.4998 4.74 53.2198 4.90667 53.8331 5.24C54.4598 5.57333 54.9598 5.99333 55.3331 6.5V4.92H58.1531V16H55.3331V14.38C54.9731 14.9 54.4731 15.3333 53.8331 15.68C53.2065 16.0133 52.4798 16.18 51.6531 16.18C50.7198 16.18 49.8665 15.94 49.0931 15.46C48.3331 14.98 47.7265 14.3067 47.2731 13.44C46.8331 12.56 46.6131 11.5533 46.6131 10.42ZM55.3331 10.46C55.3331 9.78 55.1998 9.2 54.9331 8.72C54.6665 8.22667 54.3065 7.85333 53.8531 7.6C53.3998 7.33333 52.9131 7.2 52.3931 7.2C51.8731 7.2 51.3931 7.32667 50.9531 7.58C50.5131 7.83333 50.1531 8.20667 49.8731 8.7C49.6065 9.18 49.4731 9.75333 49.4731 10.42C49.4731 11.0867 49.6065 11.6733 49.8731 12.18C50.1531 12.6733 50.5131 13.0533 50.9531 13.32C51.4065 13.5867 51.8865 13.72 52.3931 13.72C52.9131 13.72 53.3998 13.5933 53.8531 13.34C54.3065 13.0733 54.6665 12.7 54.9331 12.22C55.1998 11.7267 55.3331 11.14 55.3331 10.46ZM73.8334 6.36C73.8334 7.10667 73.6534 7.80667 73.2934 8.46C72.9468 9.11333 72.3934 9.64 71.6334 10.04C70.8868 10.44 69.9401 10.64 68.7934 10.64H66.4534V16H63.6534V2.04H68.7934C69.8734 2.04 70.7934 2.22667 71.5534 2.6C72.3134 2.97333 72.8801 3.48667 73.2534 4.14C73.6401 4.79333 73.8334 5.53333 73.8334 6.36ZM68.6734 8.38C69.4468 8.38 70.0201 8.20667 70.3934 7.86C70.7668 7.5 70.9534 7 70.9534 6.36C70.9534 5 70.1934 4.32 68.6734 4.32H66.4534V8.38H68.6734ZM81.0614 4.76C81.9014 4.76 82.6481 4.94667 83.3014 5.32C83.9547 5.68 84.4614 6.22 84.8214 6.94C85.1947 7.64667 85.3814 8.5 85.3814 9.5V16H82.5814V9.88C82.5814 9 82.3614 8.32667 81.9214 7.86C81.4814 7.38 80.8814 7.14 80.1214 7.14C79.3481 7.14 78.7347 7.38 78.2814 7.86C77.8414 8.32667 77.6214 9 77.6214 9.88V16H74.8214V1.2H77.6214V6.3C77.9814 5.82 78.4614 5.44667 79.0614 5.18C79.6614 4.9 80.3281 4.76 81.0614 4.76ZM86.3241 10.42C86.3241 9.3 86.5441 8.30667 86.9841 7.44C87.4374 6.57333 88.0441 5.90667 88.8041 5.44C89.5774 4.97333 90.4374 4.74 91.3841 4.74C92.2107 4.74 92.9307 4.90667 93.5441 5.24C94.1707 5.57333 94.6707 5.99333 95.0441 6.5V4.92H97.8641V16H95.0441V14.38C94.6841 14.9 94.1841 15.3333 93.5441 15.68C92.9174 16.0133 92.1907 16.18 91.3641 16.18C90.4307 16.18 89.5774 15.94 88.8041 15.46C88.0441 14.98 87.4374 14.3067 86.9841 13.44C86.5441 12.56 86.3241 11.5533 86.3241 10.42ZM95.0441 10.46C95.0441 9.78 94.9107 9.2 94.6441 8.72C94.3774 8.22667 94.0174 7.85333 93.5641 7.6C93.1107 7.33333 92.6241 7.2 92.1041 7.2C91.5841 7.2 91.1041 7.32667 90.6641 7.58C90.2241 7.83333 89.8641 8.20667 89.5841 8.7C89.3174 9.18 89.1841 9.75333 89.1841 10.42C89.1841 11.0867 89.3174 11.6733 89.5841 12.18C89.8641 12.6733 90.2241 13.0533 90.6641 13.32C91.1174 13.5867 91.5974 13.72 92.1041 13.72C92.6241 13.72 93.1107 13.5933 93.5641 13.34C94.0174 13.0733 94.3774 12.7 94.6441 12.22C94.9107 11.7267 95.0441 11.14 95.0441 10.46ZM102.399 6.64C102.759 6.05333 103.225 5.59333 103.799 5.26C104.385 4.92667 105.052 4.76 105.799 4.76V7.7H105.059C104.179 7.7 103.512 7.90667 103.059 8.32C102.619 8.73333 102.399 9.45333 102.399 10.48V16H99.5988V4.92H102.399V6.64ZM120.445 4.76C121.805 4.76 122.898 5.18 123.725 6.02C124.565 6.84667 124.985 8.00667 124.985 9.5V16H122.185V9.88C122.185 9.01333 121.965 8.35333 121.525 7.9C121.085 7.43333 120.485 7.2 119.725 7.2C118.965 7.2 118.358 7.43333 117.905 7.9C117.465 8.35333 117.245 9.01333 117.245 9.88V16H114.445V9.88C114.445 9.01333 114.225 8.35333 113.785 7.9C113.345 7.43333 112.745 7.2 111.985 7.2C111.211 7.2 110.598 7.43333 110.145 7.9C109.705 8.35333 109.485 9.01333 109.485 9.88V16H106.685V4.92H109.485V6.26C109.845 5.79333 110.305 5.42667 110.865 5.16C111.438 4.89333 112.065 4.76 112.745 4.76C113.611 4.76 114.385 4.94667 115.065 5.32C115.745 5.68 116.271 6.2 116.645 6.88C117.005 6.24 117.525 5.72667 118.205 5.34C118.898 4.95333 119.645 4.76 120.445 4.76ZM125.922 10.42C125.922 9.3 126.142 8.30667 126.582 7.44C127.035 6.57333 127.642 5.90667 128.402 5.44C129.175 4.97333 130.035 4.74 130.982 4.74C131.808 4.74 132.528 4.90667 133.142 5.24C133.768 5.57333 134.268 5.99333 134.642 6.5V4.92H137.462V16H134.642V14.38C134.282 14.9 133.782 15.3333 133.142 15.68C132.515 16.0133 131.788 16.18 130.962 16.18C130.028 16.18 129.175 15.94 128.402 15.46C127.642 14.98 127.035 14.3067 126.582 13.44C126.142 12.56 125.922 11.5533 125.922 10.42ZM134.642 10.46C134.642 9.78 134.508 9.2 134.242 8.72C133.975 8.22667 133.615 7.85333 133.162 7.6C132.708 7.33333 132.222 7.2 131.702 7.2C131.182 7.2 130.702 7.32667 130.262 7.58C129.822 7.83333 129.462 8.20667 129.182 8.7C128.915 9.18 128.782 9.75333 128.782 10.42C128.782 11.0867 128.915 11.6733 129.182 12.18C129.462 12.6733 129.822 13.0533 130.262 13.32C130.715 13.5867 131.195 13.72 131.702 13.72C132.222 13.72 132.708 13.5933 133.162 13.34C133.615 13.0733 133.975 12.7 134.242 12.22C134.508 11.7267 134.642 11.14 134.642 10.46ZM138.476 10.46C138.476 9.31333 138.71 8.31333 139.176 7.46C139.643 6.59333 140.29 5.92667 141.116 5.46C141.943 4.98 142.89 4.74 143.956 4.74C145.33 4.74 146.463 5.08667 147.356 5.78C148.263 6.46 148.87 7.42 149.176 8.66H146.156C145.996 8.18 145.723 7.80667 145.336 7.54C144.963 7.26 144.496 7.12 143.936 7.12C143.136 7.12 142.503 7.41333 142.036 8C141.57 8.57333 141.336 9.39333 141.336 10.46C141.336 11.5133 141.57 12.3333 142.036 12.92C142.503 13.4933 143.136 13.78 143.936 13.78C145.07 13.78 145.81 13.2733 146.156 12.26H149.176C148.87 13.46 148.263 14.4133 147.356 15.12C146.45 15.8267 145.316 16.18 143.956 16.18C142.89 16.18 141.943 15.9467 141.116 15.48C140.29 15 139.643 14.3333 139.176 13.48C138.71 12.6133 138.476 11.6067 138.476 10.46ZM160.828 4.92L153.968 21.24H150.988L153.388 15.72L148.948 4.92H152.088L154.948 12.66L157.848 4.92H160.828Z" fill="white"/>
</svg>
